<?xml version="1.0" encoding="UTF-8"?>
<svg version="1.1" xmlns="http://www.w3.org/2000/svg" width="500" height="125">
<path d="M0 0 C2.44160077 2.37377853 4.87426545 4.74755641 7.25 7.1875 C7.91 7.8475 8.57 8.5075 9.25 9.1875 C9.375 11.8125 9.375 11.8125 9.25 14.1875 C7.0078125 14.890625 7.0078125 14.890625 4.25 15.1875 C2.1171875 13.859375 2.1171875 13.859375 0.125 11.9375 C-0.53757813 11.31359375 -1.20015625 10.6896875 -1.8828125 10.046875 C-3.04194305 8.89259437 -4.17253347 7.70789708 -5.25390625 6.48046875 C-7.45184345 4.580946 -9.71416116 4.77539937 -12.51953125 4.69140625 C-19.84803421 6.32138852 -25.3592468 13.42951765 -30.4375 18.5 C-31.29150391 19.32951172 -32.14550781 20.15902344 -33.02539062 21.01367188 C-39.29017844 27.24318756 -39.29017844 27.24318756 -42.75 35.1875 C-42.51292849 41.00421895 -38.60805255 44.22204984 -34.75 48.1875 C-33.945625 49.033125 -33.14125 49.87875 -32.3125 50.75 C-29.38819533 52.39046359 -27.30274464 52.72889637 -23.98828125 52.1171875 C-18.14477991 49.69004384 -13.74179395 44.33224147 -9.51171875 39.77734375 C-8.82722656 39.04644531 -8.14273438 38.31554687 -7.4375 37.5625 C-6.84324219 36.88960937 -6.24898437 36.21671875 -5.63671875 35.5234375 C-3.75 34.1875 -3.75 34.1875 -1.01953125 34.4765625 C-0.27058594 34.71117187 0.47835937 34.94578125 1.25 35.1875 C1.97241211 36.92358398 1.97241211 36.92358398 2.25 39.1875 C0.83813477 41.24633789 0.83813477 41.24633789 -1.30859375 43.41015625 C-2.08783203 44.19583984 -2.86707031 44.98152344 -3.66992188 45.79101562 C-4.50072266 46.60248047 -5.33152344 47.41394531 -6.1875 48.25 C-6.98349609 49.06533203 -7.77949219 49.88066406 -8.59960938 50.72070312 C-13.99045411 56.06761269 -18.47787518 59.74139713 -26.2890625 60.40234375 C-35.70439038 59.15049304 -41.76174433 53.27731347 -47.75 46.1875 C-50.50313591 41.69997266 -51.36077449 37.42612489 -50.36743164 32.15893555 C-47.82690806 24.04714119 -41.18702114 18.15771013 -35.30297852 12.34936523 C-33.80834064 10.87088561 -32.33051283 9.37693986 -30.85351562 7.88085938 C-29.89419012 6.92351526 -28.93393495 5.96710163 -27.97265625 5.01171875 C-27.11422119 4.15666748 -26.25578613 3.30161621 -25.37133789 2.4206543 C-17.63301728 -4.17172892 -8.6791159 -5.72032639 0 0 Z " fill="#40B5F4" transform="translate(51.75,47.8125)"/>
<path d="M0 0 C4.07561268 2.39442245 5.68007041 5.11516721 7.5 9.4375 C7.75 12.375 7.75 12.375 7.5 14.4375 C4.86 14.4375 2.22 14.4375 -0.5 14.4375 C-0.933125 13.48875 -1.36625 12.54 -1.8125 11.5625 C-3.29302201 8.23708063 -3.29302201 8.23708063 -6.5 6.4375 C-8.68186947 6.1217006 -8.68186947 6.1217006 -11 6.1875 C-11.7734375 6.18234375 -12.546875 6.1771875 -13.34375 6.171875 C-15.79513844 6.31011938 -15.79513844 6.31011938 -18.5 8.4375 C-19.26368881 10.25002474 -19.26368881 10.25002474 -19.5 12.3125 C-19.62375 12.99054687 -19.7475 13.66859375 -19.875 14.3671875 C-19.65797445 16.65829009 -19.65797445 16.65829009 -17.49609375 18.51171875 C-13.37682994 21.1594333 -9.099693 22.54348297 -4.47070312 24.06054688 C1.10110271 25.99879592 5.45906574 28.40559188 8.8515625 33.4453125 C10.56774009 38.71790629 10.27000047 43.89749905 7.8125 48.8125 C3.71587119 53.46272729 0.48824704 56.22355274 -5.828125 56.67578125 C-14.80911766 56.84574027 -19.69577729 56.33281571 -26.8125 50.5625 C-29.85286594 46.73389104 -30.5 43.25928438 -30.5 38.4375 C-27.86 38.4375 -25.22 38.4375 -22.5 38.4375 C-22.17128906 39.25154297 -22.17128906 39.25154297 -21.8359375 40.08203125 C-20.22107587 43.72531663 -19.01988899 46.03851543 -15.8125 48.5 C-11.43329739 49.73939696 -7.88254017 49.64332225 -3.5 48.4375 C-0.80861457 46.99735074 -0.80861457 46.99735074 0.5 44.4375 C1.16666667 40.9375 1.16666667 40.9375 0.5 37.4375 C-2.6161397 33.32482832 -6.64333537 32.01761553 -11.375 30.4375 C-23.58100559 26.31599162 -23.58100559 26.31599162 -27.375 20.625 C-29.09195693 15.76028871 -29.12426322 12.1715645 -27.375 7.3125 C-21.29439806 -2.01108964 -10.19061506 -4.49077952 0 0 Z " fill="#44B4F2" transform="translate(138.5,29.5625)"/>
<path d="M0 0 C0.70253906 -0.00773438 1.40507813 -0.01546875 2.12890625 -0.0234375 C8.10571204 1.00809243 12.10167765 4.58520181 16.1875 8.8125 C16.66832031 9.29009766 17.14914063 9.76769531 17.64453125 10.25976562 C21.70400111 14.38142792 23.71990373 17.30995395 23.8125 23.125 C23.84085938 23.92421875 23.86921875 24.7234375 23.8984375 25.546875 C22.38508362 34.83219879 15.71476676 40.75007901 9.32128906 47.06762695 C7.68918685 48.68582751 6.08258539 50.3266635 4.4765625 51.97070312 C-1.89356184 58.38857731 -6.84613864 62.78365227 -16.1875 63.75 C-24.1889481 62.86095021 -30.27135071 57.27318349 -35.3203125 51.29296875 C-36.5625 49.375 -36.5625 49.375 -36.25 47.125 C-36.023125 46.5475 -35.79625 45.97 -35.5625 45.375 C-33.80859375 44.67578125 -33.80859375 44.67578125 -31.5625 44.375 C-29.59765625 45.66796875 -29.59765625 45.66796875 -27.625 47.5625 C-26.92761719 48.20703125 -26.23023438 48.8515625 -25.51171875 49.515625 C-24.86847656 50.12921875 -24.22523437 50.7428125 -23.5625 51.375 C-20.75077718 53.98588548 -19.40411898 55.23174571 -15.625 55.875 C-7.52168314 54.55200949 -1.81466046 46.92472957 3.6875 41.375 C4.59757812 40.47265625 5.50765625 39.5703125 6.4453125 38.640625 C7.31414062 37.76921875 8.18296875 36.8978125 9.078125 36 C9.86735352 35.20851562 10.65658203 34.41703125 11.46972656 33.6015625 C14.23351066 30.47430307 15.28957736 28.22966414 16 24.125 C15.18722477 18.70649844 12.28234569 16.09087812 8.4375 12.375 C7.6125 11.55 6.7875 10.725 5.9375 9.875 C2.49511438 7.80956863 0.39195176 7.81998923 -3.5625 8.375 C-9.56625375 11.77797153 -13.88367941 16.64853947 -18.52734375 21.68164062 C-19.11902344 22.29845703 -19.71070312 22.91527344 -20.3203125 23.55078125 C-20.8477002 24.11708252 -21.37508789 24.68338379 -21.91845703 25.2668457 C-23.5625 26.375 -23.5625 26.375 -25.76513672 26.05151367 C-26.3582666 25.82826416 -26.95139648 25.60501465 -27.5625 25.375 C-28.2734375 23.13134766 -28.2734375 23.13134766 -28.5625 20.375 C-27.2265625 18.29443359 -27.2265625 18.29443359 -25.1875 16.2734375 C-24.07955078 15.16742187 -24.07955078 15.16742187 -22.94921875 14.0390625 C-22.16160156 13.28367187 -21.37398437 12.52828125 -20.5625 11.75 C-19.80582031 10.986875 -19.04914062 10.22375 -18.26953125 9.4375 C-12.90848482 4.17795359 -7.90688705 -0.08736892 0 0 Z " fill="#47B2EF" transform="translate(69.5625,15.625)"/>
<path d="M0 0 C2.31 0 4.62 0 7 0 C7 7.26 7 14.52 7 22 C8.98 20.68 10.96 19.36 13 18 C18.45323921 16.1822536 23.12993758 16.31614302 28.3125 18.6875 C32.31074077 20.90613164 34.15916134 23.37526442 35.56030273 27.74902344 C36.13729877 30.70288431 36.11133598 33.50608373 36.09765625 36.515625 C36.09443359 37.76601562 36.09121094 39.01640625 36.08789062 40.3046875 C36.07532227 42.25761719 36.07532227 42.25761719 36.0625 44.25 C36.05798828 45.56742188 36.05347656 46.88484375 36.04882812 48.2421875 C36.03704316 51.49483741 36.02059011 54.74739584 36 58 C30.25 59.125 30.25 59.125 28 58 C27.99589111 57.17798096 27.99178223 56.35596191 27.98754883 55.5090332 C27.95460757 51.77612958 27.88395896 48.04485666 27.8125 44.3125 C27.80669922 43.01892578 27.80089844 41.72535156 27.79492188 40.39257812 C27.76591797 39.14541016 27.73691406 37.89824219 27.70703125 36.61328125 C27.6913208 35.46641846 27.67561035 34.31955566 27.65942383 33.13793945 C26.80420272 29.06827753 25.22027408 27.55476057 22 25 C17.85945805 24.33455576 15.82502552 24.52331859 12.1875 26.625 C6.99773559 32.25960135 7.58908172 39.63190181 7.375 46.875 C7.31699219 48.47988281 7.31699219 48.47988281 7.2578125 50.1171875 C7.16397548 52.74462408 7.07828443 55.37206171 7 58 C3.37673261 59.2077558 2.35853631 58.54311128 -1 57 C-1.02312916 49.71578452 -1.04091801 42.4315769 -1.05181217 35.14733219 C-1.05703975 31.76528187 -1.06413511 28.3832566 -1.07543945 25.0012207 C-1.08834267 21.11670223 -1.09322924 17.23219403 -1.09765625 13.34765625 C-1.10281754 12.12788589 -1.10797882 10.90811554 -1.11329651 9.65138245 C-1.11337204 8.53029587 -1.11344757 7.40920929 -1.11352539 6.25415039 C-1.115746 5.26153702 -1.11796661 4.26892365 -1.12025452 3.24623108 C-1 1 -1 1 0 0 Z " fill="#3EB5F7" transform="translate(194,27)"/>
<path d="M0 0 C3.93452982 2.97748203 5.20395519 6.253269 6 11 C6.23761472 15.64904729 6.18844594 20.28398431 6.125 24.9375 C6.11597656 26.19369141 6.10695313 27.44988281 6.09765625 28.74414062 C6.07419249 31.82962522 6.04136201 34.91471205 6 38 C1.25 39.125 1.25 39.125 -1 38 C-1 36.68 -1 35.36 -1 34 C-1.886875 34.825 -2.77375 35.65 -3.6875 36.5 C-8.84686131 40.21389608 -14.90830184 39.92532124 -21 39 C-25.41742681 36.723231 -28.40430232 34.78709305 -30 30 C-30.3881563 25.8855432 -30.24081242 23.50088983 -28.4375 19.75 C-24.66711672 15.49623425 -20.36015566 13.96300278 -14.81640625 13.48828125 C-13.39904726 13.41643356 -11.98095179 13.3579216 -10.5625 13.3125 C-9.46518555 13.26125977 -9.46518555 13.26125977 -8.34570312 13.20898438 C-6.56430438 13.12748247 -4.78218251 13.06204477 -3 13 C-3.5571996 9.25581824 -3.5571996 9.25581824 -5.625 6.1875 C-9.5231368 4.2384316 -13.20867637 4.41903017 -17.3125 5.75 C-19.34617872 7.25642868 -20.06896676 8.67241689 -21 11 C-23.64 11 -26.28 11 -29 11 C-28.9260095 7.8923991 -28.63075777 5.72426634 -26.55078125 3.3359375 C-18.39508409 -3.84673722 -9.66408177 -5.30577039 0 0 Z M-21 23 C-22.21827388 25.96954258 -22.29734011 27.28638373 -21.0625 30.25 C-18.00839319 32.84136335 -14.88617686 33.30176752 -11 33 C-6.06117747 30.67036673 -3.94026966 28.06625967 -2 23 C-2 22.01 -2 21.02 -2 20 C-4.22855574 19.9185778 -6.45797655 19.86061921 -8.6875 19.8125 C-9.92886719 19.77769531 -11.17023438 19.74289063 -12.44921875 19.70703125 C-16.22179133 20.01829961 -18.03956837 20.69317016 -21 23 Z " fill="#48B2EF" transform="translate(320,47)"/>
<path d="M0 0 C2.31 0 4.62 0 7 0 C8.91219585 1.91219585 8.24435298 5.33645504 8.31640625 7.87890625 C8.33718735 8.5655687 8.35796844 9.25223114 8.37937927 9.95970154 C8.44494143 12.16052935 8.50379015 14.36147975 8.5625 16.5625 C8.60567892 18.05144514 8.649293 19.54037773 8.69335938 21.02929688 C8.8006293 24.68606553 8.90187772 28.34297318 9 32 C9.37697021 31.57589844 9.75394043 31.15179688 10.14233398 30.71484375 C11.88281448 28.78598121 13.65890971 26.89375081 15.4375 25 C16.02982422 24.33226563 16.62214844 23.66453125 17.23242188 22.9765625 C21.77423967 18.21615455 21.77423967 18.21615455 25.48095703 17.5625 C27.69978773 17.5625 29.80560749 17.68287489 32 18 C31.34 19.32 30.68 20.64 30 22 C29.34 22 28.68 22 28 22 C27.66355469 22.82757813 27.66355469 22.82757813 27.3203125 23.671875 C25.59614817 26.71211744 23.37484178 28.81425673 20.875 31.25 C19.96492188 32.14203125 19.05484375 33.0340625 18.1171875 33.953125 C17.41851562 34.62859375 16.71984375 35.3040625 16 36 C19.65033334 41.19895961 23.5716193 45.75278845 28.16796875 50.140625 C33 55.04477612 33 55.04477612 33 59 C28.81098839 59.3490843 25.83559461 59.48529909 22.44433594 56.74121094 C17.47190588 51.91369688 13.15133636 46.53511515 9 41 C8.67 46.61 8.34 52.22 8 58 C2 59 2 59 0 58 C0 38.86 0 19.72 0 0 Z " fill="#48B3F1" transform="translate(467,27)"/>
<path d="M0 0 C5.783274 3.16596026 8.59606432 7.3606644 10.5625 13.5625 C11.18270501 21.6251651 10.63174513 28.41728984 5.4375 34.875 C-1.54784242 40.39829401 -7.51782607 40.79180632 -16.25 40 C-21.72169762 38.30874801 -25.12473769 34.68789346 -28.25 30 C-31.13391088 22.7902228 -31.21990753 15.91636689 -28.21875 8.81640625 C-22.50912939 -1.88913239 -10.47743355 -4.58582032 0 0 Z M-19.25 9 C-22.29073255 13.90440733 -22.75913745 17.85432765 -21.94921875 23.55859375 C-20.77016746 27.67539295 -18.69390377 30.47292967 -15.25 33 C-11.60497082 34.08711397 -9.32043994 34.22937999 -5.625 33.4375 C-1.50765822 30.94542471 1.21317075 27.61048776 2.75 23 C3.11617651 17.41580827 3.0046741 13.77352202 -0.25 9 C-3.47989409 6.21054601 -5.5163318 5.10480974 -9.75 4.5 C-14.01644827 5.10949261 -16.02619792 6.14253906 -19.25 9 Z " fill="#3DB6F7" transform="translate(263.25,46)"/>
<path d="M0 0 C3.99824077 2.21863164 5.84666134 4.68776442 7.24780273 9.06152344 C7.82479877 12.01538431 7.79883598 14.81858373 7.78515625 17.828125 C7.78193359 19.07851562 7.77871094 20.32890625 7.77539062 21.6171875 C7.76282227 23.57011719 7.76282227 23.57011719 7.75 25.5625 C7.74548828 26.87992188 7.74097656 28.19734375 7.73632812 29.5546875 C7.72454316 32.80733741 7.70809011 36.05989584 7.6875 39.3125 C1.9375 40.4375 1.9375 40.4375 -0.3125 39.3125 C-0.31660889 38.49048096 -0.32071777 37.66846191 -0.32495117 36.8215332 C-0.35789243 33.08862958 -0.42854104 29.35735666 -0.5 25.625 C-0.50580078 24.33142578 -0.51160156 23.03785156 -0.51757812 21.70507812 C-0.54658203 20.45791016 -0.57558594 19.21074219 -0.60546875 17.92578125 C-0.6211792 16.77891846 -0.63688965 15.63205566 -0.65307617 14.45043945 C-1.50829728 10.38077753 -3.09222592 8.86726057 -6.3125 6.3125 C-10.45304195 5.64705576 -12.48747448 5.83581859 -16.125 7.9375 C-21.31476441 13.57210135 -20.72341828 20.94440181 -20.9375 28.1875 C-20.99550781 29.79238281 -20.99550781 29.79238281 -21.0546875 31.4296875 C-21.14852452 34.05712408 -21.23421557 36.68456171 -21.3125 39.3125 C-24.2825 39.8075 -24.2825 39.8075 -27.3125 40.3125 C-29.8242966 36.54480509 -29.58388552 33.57498867 -29.54296875 29.21484375 C-29.54251053 28.42477432 -29.54205231 27.6347049 -29.5415802 26.82069397 C-29.53856142 25.15217586 -29.53068629 23.48366049 -29.51831055 21.81518555 C-29.50004459 19.25624655 -29.49780098 16.69766929 -29.49804688 14.13867188 C-29.49313185 12.51822603 -29.4873036 10.89778264 -29.48046875 9.27734375 C-29.47935593 8.50962143 -29.4782431 7.74189911 -29.47709656 6.95091248 C-29.42857994 1.54465987 -29.42857994 1.54465987 -28.3125 -0.6875 C-26.3325 -0.6875 -24.3525 -0.6875 -22.3125 -0.6875 C-21.6525 0.6325 -20.9925 1.9525 -20.3125 3.3125 C-19.549375 2.673125 -18.78625 2.03375 -18 1.375 C-12.46602838 -2.87200148 -6.16813372 -2.82231949 0 0 Z " fill="#4FB0E7" transform="translate(454.3125,45.6875)"/>
<path d="M0 0 C3.18327182 2.67111175 4.82794101 5.28529343 5.8125 9.375 C5.874375 10.24125 5.93625 11.1075 6 12 C2.8125 12.375 2.8125 12.375 -1 12 C-3.08555164 10.20080649 -4.37933419 8.26893214 -6 6 C-9.74393425 4.12803287 -14.36823735 4.51488137 -18.3125 5.6875 C-21.91545584 8.48979898 -22.89014969 11.47609854 -23.8125 15.875 C-24.17579944 19.97178086 -23.61843481 23.17460863 -22 27 C-19.2871427 29.94538792 -17.42886826 30.88303593 -13.5625 31.9375 C-9.41984551 32.01017815 -7.41794736 31.30512729 -4 29 C-2.59533047 26.94906855 -2.59533047 26.94906855 -2 25 C0.64 25 3.28 25 6 25 C6 28.38665987 5.54459576 30.41111843 3.22265625 32.921875 C-3.20611881 38.54850633 -6.80711942 39.41449082 -15.4375 39.34375 C-20.37238346 38.86757703 -23.44927697 37.41622595 -27 34 C-31.46423814 28.4784423 -33.27058393 23.6251204 -32.875 16.5625 C-32.10531851 10.04232463 -30.06124217 5.65732559 -25.125 1.1875 C-17.36217533 -4.24647727 -8.24022253 -4.7011526 0 0 Z " fill="#43B4F4" transform="translate(183,47)"/>
<path d="M0 0 C2.64 0 5.28 0 8 0 C8 16.5 8 33 8 50 C16.58 50 25.16 50 34 50 C34 51.98 34 53.96 34 56 C29.47954554 56.16749457 24.95891882 56.32806608 20.43798828 56.48217773 C18.89950922 56.53560391 17.36109506 56.59093379 15.82275391 56.64819336 C13.61374914 56.73008748 11.40460276 56.80517099 9.1953125 56.87890625 C8.50567413 56.90594131 7.81603577 56.93297638 7.10549927 56.96083069 C2.22774341 57.11387171 2.22774341 57.11387171 0 56 C0 37.52 0 19.04 0 0 Z " fill="#47B2EF" transform="translate(373,29)"/>
<path d="M0 0 C2.31 0 4.62 0 7 0 C8.54290716 1.54290716 8.17015317 3.0118396 8.22119141 5.16162109 C8.24436432 6.04699554 8.26753723 6.93237 8.29141235 7.84457397 C8.3112619 8.81109894 8.33111145 9.7776239 8.3515625 10.7734375 C8.37471527 11.76695221 8.39786804 12.76046692 8.42172241 13.78408813 C8.46948064 15.89750851 8.51469974 18.0109875 8.55761719 20.12451172 C8.62399959 23.32674116 8.70205544 26.52853381 8.78125 29.73046875 C8.82623678 31.78644279 8.87052852 33.84243218 8.9140625 35.8984375 C8.93796051 36.84472015 8.96185852 37.79100281 8.98648071 38.76596069 C9.10559824 45.24062056 8.70798899 51.56418817 8 58 C4.63458162 59.08174162 3.70152678 58.92538169 0 58 C0 38.86 0 19.72 0 0 Z " fill="#42B4F6" transform="translate(278,27)"/>
<path d="M0 0 C0 2.64 0 5.28 0 8 C-0.60328125 8.08636719 -1.2065625 8.17273437 -1.828125 8.26171875 C-5.91912384 8.98094274 -8.39124668 9.43690318 -11.5 12.3125 C-13.79371534 16.42207331 -14.11683673 20.43491247 -14.31640625 25.08203125 C-14.35830078 26.01337891 -14.40019531 26.94472656 -14.44335938 27.90429688 C-14.48267578 28.86400391 -14.52199219 29.82371094 -14.5625 30.8125 C-14.62727539 32.28106445 -14.62727539 32.28106445 -14.69335938 33.77929688 C-14.7990226 36.18607027 -14.90112327 38.59293983 -15 41 C-17.31 41 -19.62 41 -22 41 C-22 27.8 -22 14.6 -22 1 C-19.69 1 -17.38 1 -15 1 C-14.67 2.32 -14.34 3.64 -14 5 C-13.071875 4.360625 -12.14375 3.72125 -11.1875 3.0625 C-7.19652138 0.48010207 -4.65950792 -0.12593265 0 0 Z " fill="#3CB6FB" transform="translate(353,44)"/>
<path d="M0 0 C0.99 0 1.98 0 3 0 C4.12183708 3.36551123 4.20800968 6.09060232 4.31640625 9.63671875 C4.35830078 10.93544922 4.40019531 12.23417969 4.44335938 13.57226562 C4.48316987 14.94400761 4.52288216 16.31575244 4.5625 17.6875 C4.60570835 19.07097645 4.64932339 20.45444027 4.69335938 21.83789062 C4.79958028 25.22515719 4.90162358 28.61249799 5 32 C5.66 32 6.32 32 7 32 C7.66 31.34 8.32 30.68 9 30 C9.66 29.34 10.32 28.68 11 28 C11.66 28 12.32 28 13 28 C12.63003906 28.57621094 12.26007813 29.15242188 11.87890625 29.74609375 C10.735769 31.95452659 10.735769 31.95452659 11.71484375 34.03515625 C12.32005859 35.03869141 12.32005859 35.03869141 12.9375 36.0625 C14.15234375 38.09765625 14.15234375 38.09765625 15 40 C14.67 40.99 14.34 41.98 14 43 C13.01 42.67 12.02 42.34 11 42 C11 41.01 11 40.02 11 39 C9.35 38.67 7.7 38.34 6 38 C6 43.94 6 49.88 6 56 C3.03 56.495 3.03 56.495 0 57 C-1 56 -1 56 -1.08229065 53.75376892 C-1.06230515 52.76115555 -1.04231964 51.76854218 -1.02172852 50.74584961 C-1.00163223 49.62476303 -0.98153595 48.50367645 -0.96083069 47.34861755 C-0.93379562 46.1288472 -0.90676056 44.90907684 -0.87890625 43.65234375 C-0.85529526 42.41078018 -0.83168427 41.16921661 -0.80735779 39.89002991 C-0.7435734 36.58387917 -0.67538609 33.27787773 -0.60510254 29.97186279 C-0.5345003 26.6004542 -0.46963489 23.22893587 -0.40429688 19.85742188 C-0.27484416 13.23816671 -0.13958969 6.61904873 0 0 Z " fill="#3BB5FA" transform="translate(469,29)"/>
<path d="M0 0 C2.64 0 5.28 0 8 0 C8 13.2 8 26.4 8 40 C2 41 2 41 0 40 C0 26.8 0 13.6 0 0 Z " fill="#46B2EF" transform="translate(411,45)"/>
<path d="M0 0 C1.32 0 2.64 0 4 0 C4.103125 0.639375 4.20625 1.27875 4.3125 1.9375 C4.539375 2.618125 4.76625 3.29875 5 4 C5.99 4.33 6.98 4.66 8 5 C7.90150757 5.87180908 7.90150757 5.87180908 7.80102539 6.76123047 C7.07410683 13.54446865 6.70196576 20.30958736 6.4375 27.125 C6.39431641 28.176875 6.35113281 29.22875 6.30664062 30.3125 C6.20181491 32.87490627 6.09964645 35.43738799 6 38 C3.03 38.495 3.03 38.495 0 39 C0 26.13 0 13.26 0 0 Z " fill="#3AB6FB" transform="translate(427,47)"/>
<path d="M0 0 C0.66 0 1.32 0 2 0 C2 0.66 2 1.32 2 2 C2.99 2 3.98 2 5 2 C6.09828769 5.54188278 6.11445011 8.8209762 6.09765625 12.515625 C6.09282227 14.39121094 6.09282227 14.39121094 6.08789062 16.3046875 C6.07951172 17.60664062 6.07113281 18.90859375 6.0625 20.25 C6.05798828 21.56742188 6.05347656 22.88484375 6.04882812 24.2421875 C6.03704316 27.49483741 6.02059011 30.74739584 6 34 C4.0085944 34.38133299 2.00720923 34.71325582 0 35 C-1.90038976 33.09961024 -1.13058084 29.74801435 -1.1328125 27.2265625 C-1.13376923 26.54701508 -1.13472595 25.86746765 -1.13571167 25.16732788 C-1.13639348 23.72645984 -1.13453914 22.28558874 -1.13037109 20.84472656 C-1.12503921 18.64120541 -1.13030745 16.43788963 -1.13671875 14.234375 C-1.13605764 12.83593705 -1.13477581 11.43749923 -1.1328125 10.0390625 C-1.13168457 8.76240723 -1.13055664 7.48575195 -1.12939453 6.17041016 C-1 3 -1 3 0 0 Z " fill="#3DB4F8" transform="translate(456,51)"/>
<path d="M0 0 C-1.98 0.99 -1.98 0.99 -4 2 C-3.6596875 2.7734375 -3.6596875 2.7734375 -3.3125 3.5625 C-2.91800787 6.63953862 -4.0700866 8.27686525 -5.359375 11.0078125 C-6.54550037 14.69637311 -5.68351253 18.26436719 -5 22 C-4.814375 23.175625 -4.62875 24.35125 -4.4375 25.5625 C-4.293125 26.366875 -4.14875 27.17125 -4 28 C-5.98 28.99 -5.98 28.99 -8 30 C-8.103125 29.401875 -8.20625 28.80375 -8.3125 28.1875 C-8.8279009 25.93408662 -8.8279009 25.93408662 -10.5 24.5625 C-12.46573078 22.51486377 -12.62668561 20.76252651 -13 18 C-13.66 18.33 -14.32 18.66 -15 19 C-14.37129528 6.81613611 -14.37129528 6.81613611 -11 2 C-7.15007852 -1.22560989 -4.78741113 -1.22468657 0 0 Z " fill="#46B4F0" transform="translate(165,50)"/>
<path d="M0 0 C2.31 0 4.62 0 7 0 C8.91219585 1.91219585 8.24435298 5.33645504 8.31640625 7.87890625 C8.33718735 8.5655687 8.35796844 9.25223114 8.37937927 9.95970154 C8.44494143 12.16052935 8.50379015 14.36147975 8.5625 16.5625 C8.60567892 18.05144514 8.649293 19.54037773 8.69335938 21.02929688 C8.8006293 24.68606553 8.90187772 28.34297318 9 32 C11.97 29.525 11.97 29.525 15 27 C13.4169423 31.2742558 10.49431596 33.26531794 7 36 C5.52793987 33.05587973 5.76192808 30.03714085 5.68359375 26.8046875 C5.66281265 26.09724396 5.64203156 25.38980042 5.62062073 24.66091919 C5.55518922 22.39904575 5.49627026 20.13705538 5.4375 17.875 C5.39430867 16.34243578 5.35069418 14.80988343 5.30664062 13.27734375 C5.19951445 9.51834927 5.0982291 5.75923708 5 2 C4.01 2 3.02 2 2 2 C2.00222061 2.62782883 2.00444122 3.25565765 2.00672913 3.9025116 C2.02886143 10.43996613 2.04393984 16.97741001 2.05493164 23.51489258 C2.05995878 25.9543501 2.0667814 28.39380461 2.07543945 30.83325195 C2.08757583 34.34066511 2.09324455 37.84803841 2.09765625 41.35546875 C2.10281754 42.44522507 2.10797882 43.53498138 2.11329651 44.65776062 C2.11337204 45.67844131 2.11344757 46.69912201 2.11352539 47.75073242 C2.115746 48.64563889 2.11796661 49.54054535 2.12025452 50.46257019 C1.99694186 53.06452827 1.57578024 55.4628987 1 58 C0.67 58 0.34 58 0 58 C0 38.86 0 19.72 0 0 Z " fill="#55B1E5" transform="translate(467,27)"/>
<path d="M0 0 C0.66 0 1.32 0 2 0 C2.66 0.66 3.32 1.32 4 2 C4.99 2.66 5.98 3.32 7 4 C7.43237305 6.15478516 7.43237305 6.15478516 7.51171875 8.7890625 C7.56489258 10.20058594 7.56489258 10.20058594 7.61914062 11.640625 C7.64169922 12.62546875 7.66425781 13.6103125 7.6875 14.625 C7.73874023 16.11386719 7.73874023 16.11386719 7.79101562 17.6328125 C7.87365657 20.08842906 7.94275127 22.54368141 8 25 C4.25 26.125 4.25 26.125 2 25 C2 22.69 2 20.38 2 18 C1.34 18 0.68 18 0 18 C0.144375 17.154375 0.28875 16.30875 0.4375 15.4375 C1.00560632 11.96573917 1.50248883 8.48257817 2 5 C-2.95 5 -7.9 5 -13 5 C-13.33 5.99 -13.66 6.98 -14 8 C-14.66 7.67 -15.32 7.34 -16 7 C-16 5.68 -16 4.36 -16 3 C-11.05 3 -6.1 3 -1 3 C-0.67 2.01 -0.34 1.02 0 0 Z " fill="#39B7FC" transform="translate(317,60)"/>
<path d="M0 0 C0 2.64 0 5.28 0 8 C-0.60328125 8.08636719 -1.2065625 8.17273437 -1.828125 8.26171875 C-7.16272885 9.18921555 -7.16272885 9.18921555 -11.4375 12.375 C-12.73365933 14.55254768 -13.97094401 16.68462402 -15 19 C-15.66 17.02 -16.32 15.04 -17 13 C-16.01 13 -15.02 13 -14 13 C-14.33 12.443125 -14.66 11.88625 -15 11.3125 C-16.1309601 8.69715478 -16.15662974 6.8193354 -16 4 C-17.32 4.33 -18.64 4.66 -20 5 C-19.67 7.31 -19.34 9.62 -19 12 C-19.99 12.495 -19.99 12.495 -21 13 C-22.26237731 10.47524538 -22.09856404 8.68799534 -22.0625 5.875 C-22.05347656 4.96492188 -22.04445313 4.05484375 -22.03515625 3.1171875 C-22.02355469 2.41851562 -22.01195312 1.71984375 -22 1 C-19.69 1 -17.38 1 -15 1 C-14.67 2.32 -14.34 3.64 -14 5 C-13.071875 4.360625 -12.14375 3.72125 -11.1875 3.0625 C-7.19652138 0.48010207 -4.65950792 -0.12593265 0 0 Z M-14 7 C-13.67 7.99 -13.34 8.98 -13 10 C-12.01 9.67 -11.02 9.34 -10 9 C-10.66 8.34 -11.32 7.68 -12 7 C-12.66 7 -13.32 7 -14 7 Z " fill="#4EB6EE" transform="translate(353,44)"/>
<path d="M0 0 C7.92 0 15.84 0 24 0 C24 1.65 24 3.3 24 5 C16.41 5 8.82 5 1 5 C0.67 3.35 0.34 1.7 0 0 Z " fill="#3CB5FA" transform="translate(382,80)"/>
<path d="M0 0 C1.65 0 3.3 0 5 0 C6.53266582 3.06533164 6.10276471 6.26754272 6.0625 9.625 C6.05798828 10.33140625 6.05347656 11.0378125 6.04882812 11.765625 C6.03703875 13.51045275 6.01910324 15.255237 6 17 C4.02 17 2.04 17 0 17 C0 11.39 0 5.78 0 0 Z " fill="#36B7FD" transform="translate(195,29)"/>
<path d="M0 0 C2.13671875 0.83984375 2.13671875 0.83984375 2.91015625 2.54296875 C3.13671875 4.83984375 3.13671875 4.83984375 1.30078125 7.19921875 C0.46289062 7.988125 -0.375 8.77703125 -1.23828125 9.58984375 C-2.48738281 10.78867188 -2.48738281 10.78867188 -3.76171875 12.01171875 C-5.86328125 13.83984375 -5.86328125 13.83984375 -6.86328125 13.83984375 C-6.86328125 11.85984375 -6.86328125 9.87984375 -6.86328125 7.83984375 C-8.51328125 9.15984375 -10.16328125 10.47984375 -11.86328125 11.83984375 C-12.52328125 11.50984375 -13.18328125 11.17984375 -13.86328125 10.83984375 C-12.15164842 8.96634021 -10.42220572 7.11792718 -8.67578125 5.27734375 C-7.95165039 4.47780273 -7.95165039 4.47780273 -7.21289062 3.66210938 C-3.5041259 -0.19600158 -3.5041259 -0.19600158 0 0 Z " fill="#47B3EE" transform="translate(50.86328125,82.16015625)"/>
<path d="M0 0 C0.99 0.33 1.98 0.66 3 1 C2.96519531 1.90363281 2.93039063 2.80726562 2.89453125 3.73828125 C2.85392578 5.50751953 2.85392578 5.50751953 2.8125 7.3125 C2.77769531 8.48425781 2.74289063 9.65601562 2.70703125 10.86328125 C2.71282601 13.99288464 2.71282601 13.99288464 4.51171875 15.91796875 C5.00285156 16.27503906 5.49398437 16.63210937 6 17 C5.34 18.32 4.68 19.64 4 21 C3.34 21 2.68 21 2 21 C1.896875 20.401875 1.79375 19.80375 1.6875 19.1875 C1.1720991 16.93408662 1.1720991 16.93408662 -0.5 15.5625 C-2.46573078 13.51486377 -2.62668561 11.76252651 -3 9 C-3.99 9.495 -3.99 9.495 -5 10 C-5 8.02 -5 6.04 -5 4 C-4.01 4 -3.02 4 -2 4 C-2 3.01 -2 2.02 -2 1 C-1.34 0.67 -0.68 0.34 0 0 Z " fill="#38B6FB" transform="translate(155,59)"/>
<path d="M0 0 C0.99 0 1.98 0 3 0 C3.66 0.66 4.32 1.32 5 2 C4.34 2 3.68 2 3 2 C3 2.66 3 3.32 3 4 C2.34 4 1.68 4 1 4 C1.061875 5.19625 1.12375 6.3925 1.1875 7.625 C1.18015917 11.77257138 0.2963057 14.47353053 -2 18 C-4.1875 19.875 -4.1875 19.875 -6 21 C-6.33693273 14.03672362 -5.3030887 8.56654456 -3 2 C-2.34 2 -1.68 2 -1 2 C-0.67 1.34 -0.34 0.68 0 0 Z " fill="#37B6FC" transform="translate(241,50)"/>
<path d="M0 0 C0.680625 0.639375 1.36125 1.27875 2.0625 1.9375 C5.50518071 4.35470135 7.85606431 4.62327857 12 5 C13.33917261 5.30903983 14.67653254 5.62942911 16 6 C15 7 15 7 12.93359375 7.09765625 C12.10988281 7.08605469 11.28617188 7.07445313 10.4375 7.0625 C9.19806641 7.04896484 9.19806641 7.04896484 7.93359375 7.03515625 C7.29550781 7.02355469 6.65742188 7.01195313 6 7 C5.67 7.99 5.34 8.98 5 10 C9.95 10 14.9 10 20 10 C15.11666638 13.25555575 9.71188805 12.44371017 4 12 C-1.30899738 10.29353656 -3.73278452 7.32425578 -7 3 C-6.01 3 -5.02 3 -4 3 C-3.01 4.485 -3.01 4.485 -2 6 C0.05003955 7.19232613 0.05003955 7.19232613 2 8 C2.33 7.01 2.66 6.02 3 5 C2.01 5 1.02 5 0 5 C0 3.35 0 1.7 0 0 Z " fill="#4AB2EE" transform="translate(243,74)"/>
<path d="M0 0 C1.134375 0.020625 2.26875 0.04125 3.4375 0.0625 C3.1075 1.3825 2.7775 2.7025 2.4375 4.0625 C2.4375 3.4025 2.4375 2.7425 2.4375 2.0625 C0.7875 2.0625 -0.8625 2.0625 -2.5625 2.0625 C-2.55669922 2.90240479 -2.55089844 3.74230957 -2.54492188 4.60766602 C-2.50316095 15.74515633 -2.76428787 26.86708068 -3.0625 38 C-3.11085429 39.85871936 -3.15903246 41.7174433 -3.20703125 43.57617188 C-3.32349639 48.07166993 -3.44232435 52.56709966 -3.5625 57.0625 C-3.8925 57.0625 -4.2225 57.0625 -4.5625 57.0625 C-4.58562916 49.77828452 -4.60341801 42.4940769 -4.61431217 35.20983219 C-4.61953975 31.82778187 -4.62663511 28.4457566 -4.63793945 25.0637207 C-4.65084267 21.17920223 -4.65572924 17.29469403 -4.66015625 13.41015625 C-4.66531754 12.19038589 -4.67047882 10.97061554 -4.67579651 9.71388245 C-4.67587204 8.59279587 -4.67594757 7.47170929 -4.67602539 6.31665039 C-4.678246 5.32403702 -4.68046661 4.33142365 -4.68275452 3.30873108 C-4.4824948 -0.43191509 -3.89940236 0.06841057 0 0 Z " fill="#66B3D0" transform="translate(197.5625,26.9375)"/>
<path d="M0 0 C4.82034262 0.41317222 6.90992611 2.38019915 10 6 C10 6.66 10 7.32 10 8 C9.34 8 8.68 8 8 8 C8 7.34 8 6.68 8 6 C7.34 6 6.68 6 6 6 C5.67 17.22 5.34 28.44 5 40 C4.67 40 4.34 40 4 40 C3.99589111 39.17798096 3.99178223 38.35596191 3.98754883 37.5090332 C3.95460757 33.77612958 3.88395896 30.04485666 3.8125 26.3125 C3.80669922 25.01892578 3.80089844 23.72535156 3.79492188 22.39257812 C3.76591797 21.14541016 3.73691406 19.89824219 3.70703125 18.61328125 C3.6913208 17.46641846 3.67561035 16.31955566 3.65942383 15.13793945 C2.80271528 11.06119938 1.22680738 9.56009956 -2 7 C-5.68441504 6.11472891 -5.68441504 6.11472891 -9 6 C-9 5.67 -9 5.34 -9 5 C-4.66666667 5 -0.33333333 5 4 5 C4.66 4.67 5.32 4.34 6 4 C4.02 3.01 2.04 2.02 0 1 C0 0.67 0 0.34 0 0 Z " fill="#52AFE4" transform="translate(450,45)"/>
<path d="M0 0 C0.625 3.375 0.625 3.375 1 7 C-1 9 -1 9 -4 9.25 C-7 9 -7 9 -9 7 C-8.75 3.4375 -8.75 3.4375 -8 0 C-5.13822943 -1.43088528 -3.06624227 -0.59991697 0 0 Z " fill="#57AAD8" transform="translate(419,28)"/>
<path d="M0 0 C7.03904523 -0.65176345 12.12230583 1.03281743 18 5 C19.79296875 7.171875 19.79296875 7.171875 21 9 C20.67 9.66 20.34 10.32 20 11 C18.68 10.67 17.36 10.34 16 10 C15.67 8.35 15.34 6.7 15 5 C13.68 4.67 12.36 4.34 11 4 C11 4.99 11 5.98 11 7 C11.66 7 12.32 7 13 7 C12.67 8.32 12.34 9.64 12 11 C11.360625 10.505 10.72125 10.01 10.0625 9.5 C5.95976517 7.49049723 2.48556418 7.73614328 -2 8 C-1.67 7.34 -1.34 6.68 -1 6 C1.97 6 4.94 6 8 6 C7.67 4.35 7.34 2.7 7 1 C4.69 1 2.38 1 0 1 C0 0.67 0 0.34 0 0 Z " fill="#4EAFEA" transform="translate(250,44)"/>
<path d="M0 0 C2.5288437 1.14094315 4.66373928 2.47427871 7 4 C6.01 5.485 6.01 5.485 5 7 C4.47921875 6.83628906 3.9584375 6.67257813 3.421875 6.50390625 C0.3243125 5.85941341 -2.58841094 5.90588411 -5.75 5.9375 C-7.50570313 5.95103516 -7.50570313 5.95103516 -9.296875 5.96484375 C-10.18890625 5.97644531 -11.0809375 5.98804688 -12 6 C-12.33 5.01 -12.66 4.02 -13 3 C-8.44853747 0.33572925 -5.2699494 -0.64718677 0 0 Z " fill="#3AB5FA" transform="translate(450,45)"/>
<path d="M0 0 C2.64 0 5.28 0 8 0 C9.66666667 3.33333333 11.33333333 6.66666667 13 10 C11.68 9.34 10.36 8.68 9 8 C9 7.34 9 6.68 9 6 C8.01 6 7.02 6 6 6 C5.79859524 9.62528568 6.14223235 11.86501708 8 15 C3.51603993 11.68576864 1.20447484 9.66103175 0 4 C0 2.68 0 1.36 0 0 Z " fill="#4BB2EE" transform="translate(108,68)"/>
<path d="M0 0 C0.99 0 1.98 0 3 0 C3.12117188 0.67546875 3.24234375 1.3509375 3.3671875 2.046875 C3.53476563 2.93890625 3.70234375 3.8309375 3.875 4.75 C4.03742188 5.63171875 4.19984375 6.5134375 4.3671875 7.421875 C4.96796264 9.86947744 5.77997117 11.80599857 7 14 C3.625 14.1875 3.625 14.1875 0 14 C-2.21224819 10.68162771 -2.35715143 9.83937792 -2 6 C-1.39072482 3.98177598 -0.73519522 1.97583715 0 0 Z " fill="#39B6FC" transform="translate(113,37)"/>
<path d="M0 0 C0 0.66 0 1.32 0 2 C-4.95 2 -9.9 2 -15 2 C-15 3.32 -15 4.64 -15 6 C-14.34 6.33 -13.68 6.66 -13 7 C-14.98 7.99 -14.98 7.99 -17 9 C-18.32 7.68 -19.64 6.36 -21 5 C-21.66 6.32 -22.32 7.64 -23 9 C-23.66 9 -24.32 9 -25 9 C-24.1481803 5.16681136 -23.0307712 4.0223242 -19.8125 1.6875 C-13.67653764 -1.1471097 -6.5984785 -0.30930368 0 0 Z " fill="#50B2EA" transform="translate(316,61)"/>
<path d="M0 0 C0 0.99 0 1.98 0 3 C-0.66 3 -1.32 3 -2 3 C-2 3.66 -2 4.32 -2 5 C-2.99 5 -3.98 5 -5 5 C-5 5.66 -5 6.32 -5 7 C-8.96 7 -12.92 7 -17 7 C-17.33 5.35 -17.66 3.7 -18 2 C-16.64455078 2.03480469 -16.64455078 2.03480469 -15.26171875 2.0703125 C-13.49248047 2.09738281 -13.49248047 2.09738281 -11.6875 2.125 C-10.51574219 2.14820312 -9.34398437 2.17140625 -8.13671875 2.1953125 C-4.74580461 1.98417214 -3.20353209 0 0 0 Z " fill="#39B5FB" transform="translate(316,78)"/>
<path d="M0 0 C4.24603021 1.60405586 6.80701118 4.74520254 9.8125 8.0625 C9.1525 8.7225 8.4925 9.3825 7.8125 10.0625 C6.4925 10.0625 5.1725 10.0625 3.8125 10.0625 C4.1425 8.4125 4.4725 6.7625 4.8125 5.0625 C3.8225 5.0625 2.8325 5.0625 1.8125 5.0625 C1.4825 6.0525 1.1525 7.0425 0.8125 8.0625 C-1.125 7.3125 -1.125 7.3125 -3.1875 6.0625 C-4.0625 4.0625 -4.0625 4.0625 -4.1875 2.0625 C-2.1875 0.0625 -2.1875 0.0625 0 0 Z " fill="#43B3F2" transform="translate(37.1875,59.9375)"/>
<path d="M0 0 C0 0.66 0 1.32 0 2 C-1.32 2 -2.64 2 -4 2 C-4 2.99 -4 3.98 -4 5 C-2.68 5.33 -1.36 5.66 0 6 C-1.423125 7.0828125 -1.423125 7.0828125 -2.875 8.1875 C-5.67412562 10.49809898 -6.98517558 12.44811452 -8 16 C-8.54948783 13.88054693 -9.04067694 11.77918232 -9.4375 9.625 C-10.0729854 6.65940145 -11.00174455 3.86166562 -12 1 C-11.01 1 -10.02 1 -9 1 C-9 1.99 -9 2.98 -9 4 C-8.071875 3.34 -7.14375 2.68 -6.1875 2 C-3 0 -3 0 0 0 Z " fill="#4EB5EC" transform="translate(210,45)"/>
<path d="M0 0 C-1.52450179 5.80054339 -2.65326391 9.67635324 -8 13 C-8.99 12.34 -9.98 11.68 -11 11 C-10.42429187 7.11397015 -8.58424279 4.88827136 -6 2 C-3 0 -3 0 0 0 Z " fill="#41B4F4" transform="translate(74,61)"/>
<path d="M0 0 C0.99 0.66 1.98 1.32 3 2 C2.67 5.3 2.34 8.6 2 12 C1.34 12 0.68 12 0 12 C0 13.65 0 15.3 0 17 C-1.65 16.67 -3.3 16.34 -5 16 C-4.80664062 15.43152344 -4.61328125 14.86304688 -4.4140625 14.27734375 C-2.81863577 9.54635062 -1.33099414 4.81205575 0 0 Z " fill="#3AB5FC" transform="translate(89,34)"/>
<path d="M0 0 C0 0.99 0 1.98 0 3 C-0.99 3.33 -1.98 3.66 -3 4 C-3.391875 4.515625 -3.78375 5.03125 -4.1875 5.5625 C-7.18139548 7.93696883 -10.27193692 7.18334736 -14 7 C-13.34 5.02 -12.68 3.04 -12 1 C-7.95858806 0.36605303 -4.0934693 -0.12404452 0 0 Z " fill="#3AB7FB" transform="translate(70,18)"/>
<path d="M0 0 C1.32 0 2.64 0 4 0 C4 2.64 4 5.28 4 8 C3.39671875 8.08636719 2.7934375 8.17273437 2.171875 8.26171875 C-3.16272885 9.18921555 -3.16272885 9.18921555 -7.4375 12.375 C-8.73365933 14.55254768 -9.97094401 16.68462402 -11 19 C-11.66 17.02 -12.32 15.04 -13 13 C-12.01 13 -11.02 13 -10 13 C-10.33 12.01 -10.66 11.02 -11 10 C-10.360625 9.71125 -9.72125 9.4225 -9.0625 9.125 C-6.84793921 8.17176549 -6.84793921 8.17176549 -6 6 C-3.36 6.33 -0.72 6.66 2 7 C2 5.02 2 3.04 2 1 C1.34 0.67 0.68 0.34 0 0 Z " fill="#51B0E8" transform="translate(349,44)"/>
<path d="M0 0 C3.06811459 3.06811459 2.93088567 6.08423518 3.25 10.3125 C2.94774806 14.77071606 1.72840977 17.8950268 0 22 C-1.07077375 18.78767875 -1 16.36062193 -1 13 C-1.33 12.01 -1.66 11.02 -2 10 C-1.66015625 7.51953125 -1.66015625 7.51953125 -1.0625 4.8125 C-0.86785156 3.91144531 -0.67320312 3.01039062 -0.47265625 2.08203125 C-0.23869141 1.05142578 -0.23869141 1.05142578 0 0 Z " fill="#46B0EF" transform="translate(271,55)"/>
<path d="M0 0 C0.99 0 1.98 0 3 0 C3.33 3.63 3.66 7.26 4 11 C1.03 10.505 1.03 10.505 -2 10 C-2.25 3.375 -2.25 3.375 0 0 Z " fill="#39B5FC" transform="translate(143,63)"/>
<path d="M0 0 C2.31 0.33 4.62 0.66 7 1 C6.01 1.495 6.01 1.495 5 2 C5.33 2.99 5.66 3.98 6 5 C3.03 4.505 3.03 4.505 0 4 C0 5.65 0 7.3 0 9 C-1.9375 9.5625 -1.9375 9.5625 -4 10 C-5 9 -5 9 -5.0625 6.4375 C-5.041875 5.633125 -5.02125 4.82875 -5 4 C-3.35 3.34 -1.7 2.68 0 2 C0 1.34 0 0.68 0 0 Z " fill="#37B8FB" transform="translate(122,28)"/>
<path d="M0 0 C2.64 0.33 5.28 0.66 8 1 C8.33 2.65 8.66 4.3 9 6 C5.37 6 1.74 6 -2 6 C-1.34 4.02 -0.68 2.04 0 0 Z " fill="#39B6FC" transform="translate(249,44)"/>
<path d="M0 0 C4.37702633 1.22556737 8.69677317 2.53060547 13 4 C10.77810176 6.22189824 8.91517292 6.92598892 6 8 C5.34 7.34 4.68 6.68 4 6 C1.93125966 5.3574765 1.93125966 5.3574765 0 5 C0 3.35 0 1.7 0 0 Z " fill="#3AB6F9" transform="translate(13,97)"/>
<path d="M0 0 C2.6875 0.3125 2.6875 0.3125 5 1 C4.34 2.98 3.68 4.96 3 7 C4.94074861 6.72382467 4.94074861 6.72382467 7 6 C7.66 5.01 8.32 4.02 9 3 C9 4.65 9 6.3 9 8 C6.9375 8.875 6.9375 8.875 4 9 C1.40994275 7.26080867 -0.79124879 5.19602066 -3 3 C-1.66796875 1.48046875 -1.66796875 1.48046875 0 0 Z " fill="#44B4F4" transform="translate(52,54)"/>
<path d="M0 0 C3.26460973 1.80412643 4.88929795 2.83394693 7 6 C6.625 8.6875 6.625 8.6875 6 11 C3.625 10.375 3.625 10.375 1 9 C-0.69835501 5.37169613 -1.28163292 3.84489875 0 0 Z " fill="#3BB5FB" transform="translate(486,71)"/>
<path d="M0 0 C0 3 0 3 -1.4375 4.5 C-1.953125 4.995 -2.46875 5.49 -3 6 C-3.33 6.99 -3.66 7.98 -4 9 C-3.01 9.33 -2.02 9.66 -1 10 C-1.33 10.99 -1.66 11.98 -2 13 C-5.5625 14.1875 -5.5625 14.1875 -9 15 C-9 14.34 -9 13.68 -9 13 C-7.68 13 -6.36 13 -5 13 C-6.83333333 9.83333333 -6.83333333 9.83333333 -10 8 C-8.63875 7.13375 -8.63875 7.13375 -7.25 6.25 C-4.47977054 4.33214884 -2.28054501 2.45597155 0 0 Z " fill="#4EB3EC" transform="translate(67,63)"/>
<path d="M0 0 C4.41889613 1.35021826 6.34345343 3.26115668 9 7 C7.35 7 5.7 7 4 7 C4 6.01 4 5.02 4 4 C2.68 3.34 1.36 2.68 0 2 C0 1.34 0 0.68 0 0 Z M0 7 C2.475 7.495 2.475 7.495 5 8 C5 8.66 5 9.32 5 10 C6.62553283 11.70680947 8.29115995 13.37660195 10 15 C9.67 15.66 9.34 16.32 9 17 C7.49702124 15.52386015 5.99768715 14.04400843 4.5 12.5625 C3.6646875 11.73878906 2.829375 10.91507813 1.96875 10.06640625 C0 8 0 8 0 7 Z " fill="#50B0E5" transform="translate(75,17)"/>
<path d="M0 0 C-1.98 0.99 -1.98 0.99 -4 2 C-4 2.99 -4 3.98 -4 5 C-4.99 5 -5.98 5 -7 5 C-7.33 5.66 -7.66 6.32 -8 7 C-8.99 7 -9.98 7 -11 7 C-11.33 6.01 -11.66 5.02 -12 4 C-9.40083618 -1.19832765 -5.10960983 -1.30710949 0 0 Z " fill="#3AB6F9" transform="translate(165,50)"/>
<path d="M0 0 C1.67542976 0.28604898 3.34385343 0.61781233 5 1 C5.1875 3.375 5.1875 3.375 5 6 C4.01 6.66 3.02 7.32 2 8 C1.01 7.34 0.02 6.68 -1 6 C-1.25 3.4375 -1.25 3.4375 -1 1 C-0.67 0.67 -0.34 0.34 0 0 Z " fill="#39B6FB" transform="translate(413,29)"/>
<path d="M0 0 C1.41423576 2.82847152 0.3432978 4.63658306 -0.453125 7.55859375 C-1.44329808 11.97900931 -1.68489446 16.48901539 -2 21 C-4.60023818 16.31749938 -4.80522444 11.84283505 -3.359375 6.73828125 C-1.40669263 1.40669263 -1.40669263 1.40669263 0 0 Z " fill="#53B3E6" transform="translate(237,52)"/>
<path d="M0 0 C1.8125 0.1875 1.8125 0.1875 4 1 C5.875 3.3125 5.875 3.3125 7 6 C6.1875 8.3125 6.1875 8.3125 5 10 C3.5 8.625 3.5 8.625 2 7 C2 6.34 2 5.68 2 5 C1.01 4.67 0.02 4.34 -1 4 C-0.67 2.68 -0.34 1.36 0 0 Z " fill="#3BB6FC" transform="translate(80,23)"/>
<path d="M0 0 C0.99 0.495 0.99 0.495 2 1 C2.309375 2.155 2.61875 3.31 2.9375 4.5 C3.288125 5.655 3.63875 6.81 4 8 C4.99 8.33 5.98 8.66 7 9 C7.144375 9.78375 7.28875 10.5675 7.4375 11.375 C7.87798925 13.96421018 7.87798925 13.96421018 9 16 C4.74814503 14.48148037 3.09571311 11.90236234 1 8 C0.41203384 5.29827122 0.19118252 2.77214651 0 0 Z " fill="#4EB2EC" transform="translate(151,67)"/>
<path d="M0 0 C0.33 0.99 0.66 1.98 1 3 C-0.32 3 -1.64 3 -3 3 C-3 3.66 -3 4.32 -3 5 C-4.32 5 -5.64 5 -7 5 C-7.33 3.35 -7.66 1.7 -8 0 C-4.99727245 -0.96516243 -2.95784231 -1.22393475 0 0 Z " fill="#3BB5FB" transform="translate(61,73)"/>
<path d="M0 0 C2.31 0 4.62 0 7 0 C7 0.66 7 1.32 7 2 C5.68 2 4.36 2 3 2 C3 2.66 3 3.32 3 4 C0.625 5.0625 0.625 5.0625 -2 6 C-2.66 5.67 -3.32 5.34 -4 5 C-4 4.01 -4 3.02 -4 2 C-2.68 2 -1.36 2 0 2 C0 1.34 0 0.68 0 0 Z " fill="#36B6FC" transform="translate(301,47)"/>
<path d="M0 0 C0.99 0.33 1.98 0.66 3 1 C3 2.98 3 4.96 3 7 C0.36 7 -2.28 7 -5 7 C-3.625 5 -3.625 5 -2 3 C-1.34 3 -0.68 3 0 3 C0 2.01 0 1.02 0 0 Z " fill="#37B8FA" transform="translate(348,44)"/>
<path d="M0 0 C2.4375 0.25 2.4375 0.25 5 1 C5.66 1.99 6.32 2.98 7 4 C5.35 4 3.7 4 2 4 C1.67 5.32 1.34 6.64 1 8 C-0.5625 6.75 -0.5625 6.75 -2 5 C-1.74853421 2.86254078 -1.54074221 1.54074221 0 0 Z " fill="#4FB2E9" transform="translate(35,60)"/>
<path d="M0 0 C0.33 0.99 0.66 1.98 1 3 C-0.36328125 5.26171875 -0.36328125 5.26171875 -2.3125 7.6875 C-2.94800781 8.49574219 -3.58351563 9.30398437 -4.23828125 10.13671875 C-4.81964844 10.75160156 -5.40101563 11.36648437 -6 12 C-6.66 12 -7.32 12 -8 12 C-6.64994369 6.32976351 -4.1842771 3.82042691 0 0 Z " fill="#4CAFEC" transform="translate(11,66)"/>
<path d="M0 0 C2.97 0.495 2.97 0.495 6 1 C4.9375 2.9375 4.9375 2.9375 3 5 C-0.6875 5.75 -0.6875 5.75 -4 6 C-4 5.01 -4 4.02 -4 3 C-2.68 3 -1.36 3 0 3 C0 2.01 0 1.02 0 0 Z " fill="#34B9FC" transform="translate(210,44)"/>
<path d="M0 0 C0.73605469 0.08378906 1.47210938 0.16757813 2.23046875 0.25390625 C3.20628906 0.35574219 4.18210937 0.45757812 5.1875 0.5625 C6.15042969 0.66691406 7.11335937 0.77132812 8.10546875 0.87890625 C10.94233377 0.99758751 13.25423671 0.67765639 16 0 C14.94921875 1.45703125 14.94921875 1.45703125 13 3 C9.64453125 3.51171875 9.64453125 3.51171875 5.8125 3.6875 C3.90404297 3.78611328 3.90404297 3.78611328 1.95703125 3.88671875 C0.98121094 3.92410156 0.00539063 3.96148437 -1 4 C-0.67 2.68 -0.34 1.36 0 0 Z " fill="#50B2EB" transform="translate(121,78)"/>
<path d="M0 0 C2.31 0.33 4.62 0.66 7 1 C6.67 3.97 6.34 6.94 6 10 C4 6 4 6 4 4 C3.34 4 2.68 4 2 4 C2 3.34 2 2.68 2 2 C1.34 2 0.68 2 0 2 C0 1.34 0 0.68 0 0 Z " fill="#38B5FB" transform="translate(314,48)"/>
<path d="M0 0 C0.99 0.33 1.98 0.66 3 1 C2.01 2.485 2.01 2.485 1 4 C0.34 4 -0.32 4 -1 4 C-1 4.99 -1 5.98 -1 7 C-1.99 7 -2.98 7 -4 7 C-4.33 7.99 -4.66 8.98 -5 10 C-5 8.02 -5 6.04 -5 4 C-4.01 4 -3.02 4 -2 4 C-2 3.01 -2 2.02 -2 1 C-1.34 0.67 -0.68 0.34 0 0 Z " fill="#2DC6FE" transform="translate(155,59)"/>
<path d="M0 0 C-0.66 1.32 -1.32 2.64 -2 4 C-2.66 4 -3.32 4 -4 4 C-4 3.34 -4 2.68 -4 2 C-4.928125 2.33 -5.85625 2.66 -6.8125 3 C-10 4 -10 4 -13 4 C-9.41420832 -0.98892755 -5.61771415 -0.43213186 0 0 Z " fill="#51B8E6" transform="translate(499,45)"/>
<path d="M0 0 C3.49234244 -0.09978121 6.59437148 0.22157062 10 1 C8.9375 2.5 8.9375 2.5 7 4 C3.3125 4.1875 3.3125 4.1875 0 4 C0 2.68 0 1.36 0 0 Z " fill="#36B9FC" transform="translate(132,31)"/>
<path d="M0 0 C0 2.33333333 0 4.66666667 0 7 C0.66 7 1.32 7 2 7 C1.34 8.32 0.68 9.64 0 11 C-0.66 10.67 -1.32 10.34 -2 10 C-1.67 9.34 -1.34 8.68 -1 8 C-1.66 7.67 -2.32 7.34 -3 7 C-2.67 6.34 -2.34 5.68 -2 5 C-2.66 4.67 -3.32 4.34 -4 4 C-2.68 2.68 -1.36 1.36 0 0 Z " fill="#4AB2EC" transform="translate(36,94)"/>
<path d="M0 0 C3 3.625 3 3.625 3 7 C3.99 7 4.98 7 6 7 C7.75 9.375 7.75 9.375 9 12 C8.67 12.66 8.34 13.32 8 14 C0.14806378 5.92255125 0.14806378 5.92255125 0 0 Z " fill="#55AFE4" transform="translate(2,86)"/>
<path d="M0 0 C2.375 -0.125 2.375 -0.125 5 0 C7 2 7 2 7 5 C4.69 4.67 2.38 4.34 0 4 C0 2.68 0 1.36 0 0 Z " fill="#3EB6F6" transform="translate(493,81)"/>
<path d="M0 0 C-0.33 1.98 -0.66 3.96 -1 6 C-2.32 5.67 -3.64 5.34 -5 5 C-5.33 3.35 -5.66 1.7 -6 0 C-3.50907189 -1.24546405 -2.58919267 -0.7767578 0 0 Z " fill="#39B5FD" transform="translate(144,37)"/>
<path d="M0 0 C1.98 0 3.96 0 6 0 C6.33 1.65 6.66 3.3 7 5 C6.01 5.495 6.01 5.495 5 6 C5 4.68 5 3.36 5 2 C3.05000871 2.19471111 3.05000871 2.19471111 1 3 C-0.28436734 4.9837767 -0.28436734 4.9837767 -1 7 C-0.67 4.69 -0.34 2.38 0 0 Z " fill="#5CACD8" transform="translate(426,45)"/>
<path d="M0 0 C1.65 0.33 3.3 0.66 5 1 C4.67 1.99 4.34 2.98 4 4 C1.125 4.1875 1.125 4.1875 -2 4 C-2.66 3.01 -3.32 2.02 -4 1 C-2.68 1.33 -1.36 1.66 0 2 C0 1.34 0 0.68 0 0 Z " fill="#40B5F7" transform="translate(47,73)"/>
<path d="M0 0 C2.64 0 5.28 0 8 0 C7.67 1.65 7.34 3.3 7 5 C6.01 4.34 5.02 3.68 4 3 C1.88719655 2.36707617 1.88719655 2.36707617 0 2 C0 1.34 0 0.68 0 0 Z " fill="#4FB4E9" transform="translate(181,72)"/>
<path d="M0 0 C0 2.31 0 4.62 0 7 C-0.99 7 -1.98 7 -3 7 C-4.6875 5 -4.6875 5 -6 3 C-3.375 0 -3.375 0 0 0 Z " fill="#31C5FB" transform="translate(42,65)"/>
<path d="M0 0 C0.66 0.33 1.32 0.66 2 1 C1.67 1.66 1.34 2.32 1 3 C1.99 3.33 2.98 3.66 4 4 C1.35261084 5.4606285 0.10551666 6 -3 6 C-2.625 3.5625 -2.625 3.5625 -2 1 C-1.34 0.67 -0.68 0.34 0 0 Z " fill="#3CB5FB" transform="translate(32,48)"/>
<path d="M0 0 C0.99 0.33 1.98 0.66 3 1 C3 1.99 3 2.98 3 4 C2.01 4 1.02 4 0 4 C-0.33 4.99 -0.66 5.98 -1 7 C-1.66 6.67 -2.32 6.34 -3 6 C-2.42655063 3.13275314 -2.1385485 2.1385485 0 0 Z " fill="#38B6FC" transform="translate(66,66)"/>
<path d="M0 0 C-0.66 0 -1.32 0 -2 0 C-1.67 0.99 -1.34 1.98 -1 3 C-1.82757813 2.50886719 -1.82757813 2.50886719 -2.671875 2.0078125 C-5.38780923 0.83212285 -7.30551759 0.79751362 -10.25 0.875 C-11.58804688 0.90207031 -11.58804688 0.90207031 -12.953125 0.9296875 C-13.62859375 0.95289063 -14.3040625 0.97609375 -15 1 C-14.67 0.34 -14.34 -0.32 -14 -1 C-11.34765625 -1.484375 -11.34765625 -1.484375 -8.0625 -1.75 C-6.44021484 -1.89695313 -6.44021484 -1.89695313 -4.78515625 -2.046875 C-2 -2 -2 -2 0 0 Z " fill="#52B0E8" transform="translate(50,52)"/>
<path d="M0 0 C0.33 0 0.66 0 1 0 C1 4.95 1 9.9 1 15 C0.67 13.68 0.34 12.36 0 11 C-1.32 11 -2.64 11 -4 11 C-4 10.34 -4 9.68 -4 9 C-3.01 8.67 -2.02 8.34 -1 8 C-0.67 5.36 -0.34 2.72 0 0 Z " fill="#45B6F9" transform="translate(200,31)"/>
<path d="M0 0 C0 5.00634437 -1.56126729 9.64512016 -4 14 C-4.31549088 8.7418187 -3.70016294 5.53627373 -1 1 C-0.67 0.67 -0.34 0.34 0 0 Z " fill="#51AFE4" transform="translate(114,33)"/>
<path d="M0 0 C2.475 0.99 2.475 0.99 5 2 C4.67 2.99 4.34 3.98 4 5 C2.02 5 0.04 5 -2 5 C-1.34 3.35 -0.68 1.7 0 0 Z " fill="#3EB6F9" transform="translate(75,19)"/>
<path d="M0 0 C0.99 0 1.98 0 3 0 C3.66 0.99 4.32 1.98 5 3 C6.299375 3.7734375 6.299375 3.7734375 7.625 4.5625 C8.40875 5.036875 9.1925 5.51125 10 6 C10 6.66 10 7.32 10 8 C4.98886765 6.5682479 3.05530451 4.01554307 0 0 Z " fill="#50AFE1" transform="translate(236,77)"/>
<path d="M0 0 C2 2 2 2 2 6 C-0.31 6 -2.62 6 -5 6 C-5.33 5.01 -5.66 4.02 -6 3 C-3.03 3.495 -3.03 3.495 0 4 C0 2.68 0 1.36 0 0 Z " fill="#5AAADC" transform="translate(187,53)"/>
<path d="M0 0 C0.99 0.99 1.98 1.98 3 3 C2.67 3.99 2.34 4.98 2 6 C-0.5625 7.1875 -0.5625 7.1875 -3 8 C-2.01 5.36 -1.02 2.72 0 0 Z " fill="#51B6EC" transform="translate(267,75)"/>
<path d="M0 0 C0 0.66 0 1.32 0 2 C-0.66 2 -1.32 2 -2 2 C-2 2.66 -2 3.32 -2 4 C-4.90600261 5.25664978 -6.79604584 6 -10 6 C-2.92307692 0 -2.92307692 0 0 0 Z " fill="#53AEE4" transform="translate(165,45)"/>
<path d="M0 0 C2.35171131 0.59861742 4.6859378 1.26924352 7 2 C7.33 2.66 7.66 3.32 8 4 C5.03 4 2.06 4 -1 4 C-0.67 2.68 -0.34 1.36 0 0 Z " fill="#4DB3EE" transform="translate(133,54)"/>
<path d="M0 0 C2.475 0.495 2.475 0.495 5 1 C5 2.32 5 3.64 5 5 C3.35 5 1.7 5 0 5 C0 3.35 0 1.7 0 0 Z " fill="#3ABAFA" transform="translate(292,52)"/>
<path d="M0 0 C-0.33 1.98 -0.66 3.96 -1 6 C-2.98 4.35 -4.96 2.7 -7 1 C-3.375 -1.125 -3.375 -1.125 0 0 Z " fill="#4AB4EC" transform="translate(223,51)"/>
<path d="M0 0 C1.04449911 3.13349732 0.93423645 3.98968256 0 7 C-1.65 7 -3.3 7 -5 7 C-3.35 4.69 -1.7 2.38 0 0 Z " fill="#4FB2E9" transform="translate(84,45)"/>
<path d="M0 0 C0.66 1.32 1.32 2.64 2 4 C1.34 4 0.68 4 0 4 C0.66 5.32 1.32 6.64 2 8 C0.68 7.34 -0.64 6.68 -2 6 C-1.125 1.125 -1.125 1.125 0 0 Z " fill="#52B1E3" transform="translate(43,34)"/>
<path d="M0 0 C0.33 0 0.66 0 1 0 C1 1.65 1 3.3 1 5 C-1.3125 5.6875 -1.3125 5.6875 -4 6 C-5.8125 4.5625 -5.8125 4.5625 -7 3 C-5.02 3 -3.04 3 -1 3 C-0.67 2.01 -0.34 1.02 0 0 Z " fill="#56B1E1" transform="translate(60,57)"/>
<path d="M0 0 C1.32 0 2.64 0 4 0 C3.67 1.32 3.34 2.64 3 4 C1.68 4 0.36 4 -1 4 C-0.67 2.68 -0.34 1.36 0 0 Z " fill="#37B6FC" transform="translate(56,57)"/>
<path d="" fill="#FFFFFF" transform="translate(0,0)"/>
<path d="" fill="#FFFFFF" transform="translate(0,0)"/>
<path d="" fill="#FFFFFF" transform="translate(0,0)"/>
<path d="" fill="#FFFFFF" transform="translate(0,0)"/>
<path d="" fill="#FFFFFF" transform="translate(0,0)"/>
<path d="" fill="#FFFFFF" transform="translate(0,0)"/>
<path d="" fill="#FFFFFF" transform="translate(0,0)"/>
<path d="" fill="#FFFFFF" transform="translate(0,0)"/>
<path d="" fill="#FFFFFF" transform="translate(0,0)"/>
<path d="" fill="#FFFFFF" transform="translate(0,0)"/>
<path d="" fill="#FFFFFF" transform="translate(0,0)"/>
<path d="" fill="#FFFFFF" transform="translate(0,0)"/>
<path d="" fill="#FFFFFF" transform="translate(0,0)"/>
<path d="" fill="#FFFFFF" transform="translate(0,0)"/>
<path d="" fill="#FFFFFF" transform="translate(0,0)"/>
<path d="" fill="#FFFFFF" transform="translate(0,0)"/>
<path d="" fill="#FFFFFF" transform="translate(0,0)"/>
<path d="" fill="#FFFFFF" transform="translate(0,0)"/>
<path d="" fill="#FFFFFF" transform="translate(0,0)"/>
<path d="" fill="#FFFFFF" transform="translate(0,0)"/>
<path d="" fill="#FFFFFF" transform="translate(0,0)"/>
<path d="" fill="#FFFFFF" transform="translate(0,0)"/>
<path d="" fill="#FFFFFF" transform="translate(0,0)"/>
<path d="" fill="#FFFFFF" transform="translate(0,0)"/>
<path d="" fill="#FF00FF" transform="translate(0,0)"/>
<path d="" fill="#FFFFFF" transform="translate(0,0)"/>
<path d="" fill="#FFFFFF" transform="translate(0,0)"/>
<path d="" fill="#FFFFFF" transform="translate(0,0)"/>
<path d="" fill="#FFFFFF" transform="translate(0,0)"/>
<path d="" fill="#FFFFFF" transform="translate(0,0)"/>
<path d="" fill="#FFFFFF" transform="translate(0,0)"/>
<path d="" fill="#FFFFFF" transform="translate(0,0)"/>
<path d="" fill="#FFFFFF" transform="translate(0,0)"/>
<path d="" fill="#FFFFFF" transform="translate(0,0)"/>
<path d="" fill="#FFFFFF" transform="translate(0,0)"/>
<path d="" fill="#FFFFFF" transform="translate(0,0)"/>
<path d="" fill="#FFFFFF" transform="translate(0,0)"/>
<path d="" fill="#FFFFFF" transform="translate(0,0)"/>
<path d="" fill="#FFFFFF" transform="translate(0,0)"/>
<path d="" fill="#FFFFFF" transform="translate(0,0)"/>
<path d="" fill="#FFFFFF" transform="translate(0,0)"/>
<path d="" fill="#FFFFFF" transform="translate(0,0)"/>
<path d="" fill="#FFFFFF" transform="translate(0,0)"/>
<path d="" fill="#FFFFFF" transform="translate(0,0)"/>
<path d="" fill="#FFFFFF" transform="translate(0,0)"/>
<path d="" fill="#FFFFFF" transform="translate(0,0)"/>
<path d="" fill="#FFFFFF" transform="translate(0,0)"/>
<path d="" fill="#FFFFFF" transform="translate(0,0)"/>
<path d="" fill="#FFFFFF" transform="translate(0,0)"/>
<path d="" fill="#FFFFFF" transform="translate(0,0)"/>
<path d="" fill="#FFFFFF" transform="translate(0,0)"/>
<path d="" fill="#FFFFFF" transform="translate(0,0)"/>
<path d="" fill="#FFFFFF" transform="translate(0,0)"/>
<path d="" fill="#FFFFFF" transform="translate(0,0)"/>
<path d="" fill="#FFFFFF" transform="translate(0,0)"/>
<path d="" fill="#FFFFFF" transform="translate(0,0)"/>
<path d="" fill="#FFFFFF" transform="translate(0,0)"/>
<path d="" fill="#FFFFFF" transform="translate(0,0)"/>
<path d="" fill="#FFFFFF" transform="translate(0,0)"/>
<path d="" fill="#FFFFFF" transform="translate(0,0)"/>
<path d="" fill="#FFFFFF" transform="translate(0,0)"/>
<path d="" fill="#FFFFFF" transform="translate(0,0)"/>
<path d="" fill="#FFFFFF" transform="translate(0,0)"/>
<path d="" fill="#FFFFFF" transform="translate(0,0)"/>
<path d="" fill="#FFFFFF" transform="translate(0,0)"/>
<path d="" fill="#FFFFFF" transform="translate(0,0)"/>
<path d="" fill="#FFFFFF" transform="translate(0,0)"/>
<path d="" fill="#FFFFFF" transform="translate(0,0)"/>
<path d="" fill="#FFFFFF" transform="translate(0,0)"/>
<path d="" fill="#FFFFFF" transform="translate(0,0)"/>
<path d="" fill="#FFFFFF" transform="translate(0,0)"/>
<path d="" fill="#FFFFFF" transform="translate(0,0)"/>
<path d="" fill="#FFFFFF" transform="translate(0,0)"/>
<path d="" fill="#FFFFFF" transform="translate(0,0)"/>
<path d="" fill="#FFFFFF" transform="translate(0,0)"/>
<path d="" fill="#FFFFFF" transform="translate(0,0)"/>
<path d="" fill="#FFFFFF" transform="translate(0,0)"/>
<path d="" fill="#FFFFFF" transform="translate(0,0)"/>
<path d="" fill="#FFFFFF" transform="translate(0,0)"/>
<path d="" fill="#FFFFFF" transform="translate(0,0)"/>
<path d="" fill="#FFFFFF" transform="translate(0,0)"/>
<path d="" fill="#FFFFFF" transform="translate(0,0)"/>
<path d="" fill="#FFFFFF" transform="translate(0,0)"/>
<path d="" fill="#FFFFFF" transform="translate(0,0)"/>
<path d="" fill="#FFFFFF" transform="translate(0,0)"/>
<path d="" fill="#FFFFFF" transform="translate(0,0)"/>
<path d="" fill="#FFFFFF" transform="translate(0,0)"/>
<path d="" fill="#FFFFFF" transform="translate(0,0)"/>
<path d="" fill="#FFFFFF" transform="translate(0,0)"/>
<path d="" fill="#FFFFFF" transform="translate(0,0)"/>
<path d="" fill="#FFFFFF" transform="translate(0,0)"/>
<path d="" fill="#FFFFFF" transform="translate(0,0)"/>
<path d="" fill="#FFFFFF" transform="translate(0,0)"/>
</svg>
