<?xml version="1.0" encoding="UTF-8"?>
<svg version="1.1" xmlns="http://www.w3.org/2000/svg" width="500" height="125">
<path d="M0 0 C165 0 330 0 500 0 C500 41.25 500 82.5 500 125 C335 125 170 125 0 125 C0 83.75 0 42.5 0 0 Z " fill="#FDFEFF" transform="translate(0,0)"/>
<path d="M0 0 C4.65691145 2.81558035 7.6560708 6.50056202 9.625 11.5625 C10.65672375 18.05716391 10.84535056 24.38113042 7.4375 30.1875 C4.25750716 34.39155834 0.4946477 37.51533147 -4.375 39.5625 C-10.52306878 40.2776077 -16.21996336 40.27892176 -21.375 36.5625 C-26.7105093 31.23984735 -29.65868427 27.01954746 -29.75 19.3125 C-29.59994671 12.25999514 -28.60505464 7.73792369 -23.52734375 2.74609375 C-16.54653138 -2.7143965 -8.18345752 -3.36413646 0 0 Z " fill="#40B9FF" transform="translate(263.375,46.4375)"/>
<path d="M0 0 C4.42093515 2.41436137 7.39876978 5.19630934 9 10 C9.08378628 12.2838517 9.10729915 14.570101 9.09765625 16.85546875 C9.0962413 17.51710526 9.09482635 18.17874176 9.09336853 18.86042786 C9.08777996 20.96949828 9.07522965 23.07846177 9.0625 25.1875 C9.05748352 26.61913909 9.05292087 28.05077985 9.04882812 29.48242188 C9.0378143 32.98831588 9.02055755 36.4941475 9 40 C7.02 40 5.04 40 3 40 C2.505 37.525 2.505 37.525 2 35 C1.05125 35.804375 0.1025 36.60875 -0.875 37.4375 C-5.11811351 41.03492232 -8.01193803 41.28626627 -13.52734375 41.21484375 C-17.98817736 40.82725157 -20.12398488 38.80498687 -23.3125 35.875 C-25.66378972 31.869099 -25.80050387 28.53893948 -25 24 C-22.49110406 19.38363147 -18.91077975 17.48633811 -14 16 C-11.16999832 15.67260044 -8.40616736 15.71103337 -5.5625 15.8125 C-4.83095703 15.82603516 -4.09941406 15.83957031 -3.34570312 15.85351562 C-1.56347578 15.88846126 0.21836573 15.94225195 2 16 C0.90324484 10.93580279 0.90324484 10.93580279 -2.25 7.0625 C-6.38476832 5.46497588 -9.48798539 5.62199635 -13.75 6.6875 C-16.6185409 8.36081553 -17.09456528 9.87213459 -18 13 C-19.98 13 -21.96 13 -24 13 C-23.92430022 9.8206091 -23.63231963 7.69110312 -21.4453125 5.30078125 C-14.6775967 -0.49811217 -8.95219549 -1.22297753 0 0 Z " fill="#40B9FF" transform="translate(316,45)"/>
<path d="M0 0 C4.59444664 2.35767657 6.56820308 5.81433741 8.59375 10.3515625 C8.59375 11.6715625 8.59375 12.9915625 8.59375 14.3515625 C6.28375 14.3515625 3.97375 14.3515625 1.59375 14.3515625 C1.201875 13.4234375 0.81 12.4953125 0.40625 11.5390625 C-1.60168178 8.00787213 -2.68200115 6.87511885 -6.40625 5.3515625 C-10.60490104 4.98325978 -13.86691466 4.90125342 -17.40625 7.3515625 C-18.96399936 10.46706122 -18.97105622 13.9560013 -18.40625 17.3515625 C-15.98601898 21.05092703 -11.58034455 21.926464 -7.59375 23.2890625 C6.12601691 27.98033764 6.12601691 27.98033764 9.59375 34.3515625 C10.43385449 39.78575192 10.26386761 44.78795475 8.09375 49.8515625 C2.9484099 54.9969026 -1.61734459 56.60156018 -8.90625 56.9140625 C-16.50988486 56.66736288 -20.47549902 54.13201856 -25.84375 49.0390625 C-27.95494585 45.40780563 -28.12314548 42.52735418 -28.40625 38.3515625 C-26.09625 38.3515625 -23.78625 38.3515625 -21.40625 38.3515625 C-21.15101562 39.16560547 -21.15101562 39.16560547 -20.890625 39.99609375 C-20.64828125 40.71152344 -20.4059375 41.42695312 -20.15625 42.1640625 C-19.92421875 42.87175781 -19.6921875 43.57945313 -19.453125 44.30859375 C-18.12713384 46.8962556 -16.93831083 47.92617161 -14.40625 49.3515625 C-11.72709643 49.78705474 -11.72709643 49.78705474 -8.90625 49.6640625 C-7.9678125 49.66019531 -7.029375 49.65632813 -6.0625 49.65234375 C-3.35332203 49.34556919 -1.70430929 48.78720403 0.59375 47.3515625 C2.64325964 44.71647868 2.5917223 43.2380113 2.53125 39.8515625 C1.37373791 35.53018403 0.26663008 34.80828947 -3.40625 32.3515625 C-6.66864578 30.9144031 -10.05074883 29.83781919 -13.43554688 28.72851562 C-18.65547658 26.91267278 -23.80770978 24.54864293 -26.40625 19.3515625 C-27.11924792 14.53882651 -27.49311716 10.14973016 -24.9140625 5.8828125 C-18.29253931 -1.70034269 -9.68038569 -2.60867536 0 0 Z " fill="#3FB8FF" transform="translate(137.40625,29.6484375)"/>
<path d="M0 0 C6.35298269 2.60926075 11.94271851 7.46025027 16 13 C15.75 15.28125 15.75 15.28125 15 17 C13.33203125 17.83984375 13.33203125 17.83984375 11 18 C8.54987532 15.78250584 6.45961267 13.47459281 4.33007812 10.95898438 C1.80230433 8.18093595 0.31787597 7.05558288 -3.41796875 6.40234375 C-12.36069742 7.89442389 -17.64077681 14.210247 -23.75 20.4375 C-24.59949219 21.28376953 -25.44898437 22.13003906 -26.32421875 23.00195312 C-33.24182138 29.82641131 -33.24182138 29.82641131 -36.75 38.6875 C-36.59674548 44.05140831 -32.79271838 47.22528813 -29.26171875 50.8984375 C-26.33260355 53.62013694 -24.72587971 54.93152078 -20.6875 55.3125 C-11.77138183 54.55689677 -7.09452151 48.28436289 -1.390625 42.09765625 C-0.75382812 41.43121094 -0.11703125 40.76476562 0.5390625 40.078125 C1.10834473 39.46356445 1.67762695 38.84900391 2.26416016 38.21582031 C4 37 4 37 6.21630859 37.30761719 C7.09923584 37.65034668 7.09923584 37.65034668 8 38 C7.73267027 44.10249238 5.02009628 46.65399403 0.8125 50.625 C0.24724609 51.18445313 -0.31800781 51.74390625 -0.90039062 52.3203125 C-7.45912343 58.69122364 -12.51581208 61.95205717 -21.8046875 62.328125 C-27.6992797 61.44708275 -31.73186484 57.74331028 -35.75 53.625 C-36.23082031 53.15578125 -36.71164063 52.6865625 -37.20703125 52.203125 C-41.23996807 48.13648676 -43.25916918 44.42555652 -43.4375 38.6875 C-42.99875603 28.92201067 -34.66693606 22.19556261 -28.12573242 15.73461914 C-26.55867953 14.18371891 -25.00839726 12.61733028 -23.45898438 11.04882812 C-22.454086 10.04591118 -21.44825792 9.04392472 -20.44140625 8.04296875 C-19.54107666 7.14602295 -18.64074707 6.24907715 -17.71313477 5.32495117 C-12.15419016 0.56135633 -7.15467225 -1.08137401 0 0 Z " fill="#3FB8FF" transform="translate(45,45)"/>
<path d="M0 0 C3.73347312 2.17211905 6.43751819 4.7030407 9.42578125 7.78515625 C9.95429687 8.31044922 10.4828125 8.83574219 11.02734375 9.37695312 C15.03498106 13.44053461 16.98385886 15.92843231 17.55078125 21.59765625 C17.22143891 30.99257998 10.52775162 37.54924381 4.17578125 43.84765625 C2.51244122 45.18513727 0.84626931 46.51911374 -0.82421875 47.84765625 C-1.42234375 48.63140625 -2.02046875 49.41515625 -2.63671875 50.22265625 C-7.13336943 55.61863706 -13.02015671 60.16255523 -20.0703125 61.16796875 C-26.08106465 61.58881289 -29.44496681 60.49848532 -33.9921875 56.5625 C-34.59675781 55.99660156 -35.20132813 55.43070313 -35.82421875 54.84765625 C-36.43910156 54.33332031 -37.05398437 53.81898437 -37.6875 53.2890625 C-39.38671875 51.78515625 -39.38671875 51.78515625 -41.82421875 48.84765625 C-41.69921875 45.97265625 -41.69921875 45.97265625 -40.82421875 43.84765625 C-36.15409838 44.29670629 -34.54885285 45.89017256 -31.57421875 49.41015625 C-28.51799452 52.60368174 -26.65053408 54.50791965 -22.13671875 54.66015625 C-13.83165727 54.23786499 -7.55182989 45.90848319 -2.13671875 40.47265625 C-1.28271484 39.63476562 -0.42871094 38.796875 0.45117188 37.93359375 C5.35292422 33.03569196 9.28925064 28.92569708 10.80078125 21.97265625 C9.81818995 17.05969973 6.67137088 14.2867515 3.17578125 10.84765625 C2.65113281 10.31269531 2.12648437 9.77773438 1.5859375 9.2265625 C-0.74869986 7.04054926 -2.56540799 5.90391946 -5.69921875 5.22265625 C-14.21950244 6.92671299 -19.60231961 13.37420594 -25.16821289 19.56518555 C-26.7734375 21.27734375 -26.7734375 21.27734375 -29.82421875 23.84765625 C-32.71875 23.73046875 -32.71875 23.73046875 -34.82421875 22.84765625 C-33.93962093 17.2569044 -29.55757795 14.10802887 -25.69921875 10.28515625 C-24.9515625 9.51751953 -24.20390625 8.74988281 -23.43359375 7.95898438 C-16.80357941 1.33474531 -9.73735842 -3.97305772 0 0 Z " fill="#3FB8FF" transform="translate(75.82421875,17.15234375)"/>
<path d="M0 0 C2.31 0 4.62 0 7 0 C7.33 7.26 7.66 14.52 8 22 C10.97 19.525 10.97 19.525 14 17 C18.95229346 15.94276881 23.65930755 16.56122792 28.4375 18.125 C31.60477951 20.44252159 33.08670984 22.56880625 35 26 C35.45410156 29.52685547 35.45410156 29.52685547 35.390625 33.3671875 C35.38496521 34.04677521 35.37930542 34.72636292 35.37347412 35.42654419 C35.35125351 37.57677549 35.30109198 39.72528074 35.25 41.875 C35.22991614 43.3411216 35.21166868 44.80726958 35.1953125 46.2734375 C35.15143811 49.84951008 35.08251443 53.42458631 35 57 C33.02 57 31.04 57 29 57 C28.98541748 56.20827393 28.97083496 55.41654785 28.95581055 54.60083008 C28.88121644 51.00423457 28.78459167 47.40855557 28.6875 43.8125 C28.66494141 42.56662109 28.64238281 41.32074219 28.61914062 40.03710938 C28.58369141 38.83505859 28.54824219 37.63300781 28.51171875 36.39453125 C28.47244263 34.73707886 28.47244263 34.73707886 28.43237305 33.04614258 C27.91123137 29.37460968 26.64462449 26.64462449 24 24 C19.09400888 23.44580471 15.21062213 23.25880278 10.9375 25.875 C7.8003666 29.31572696 7.83358669 31.51606402 7.68359375 36.1015625 C7.64169922 37.31328125 7.59980469 38.525 7.55664062 39.7734375 C7.51732422 41.04445312 7.47800781 42.31546875 7.4375 43.625 C7.37272461 45.543125 7.37272461 45.543125 7.30664062 47.5 C7.20030114 50.66655348 7.09827167 53.83318753 7 57 C4.69 57 2.38 57 0 57 C0 38.19 0 19.38 0 0 Z " fill="#3EB8FF" transform="translate(194,28)"/>
<path d="M0 0 C2.31 0 4.62 0 7 0 C7.33 10.89 7.66 21.78 8 33 C13.60635801 27.43014705 13.60635801 27.43014705 18.875 21.625 C21.97222222 18.02777778 21.97222222 18.02777778 23 17 C25.67058851 16.85884839 28.32432238 16.95752893 31 17 C29.6415798 20.04332765 28.11536976 22.12309151 25.7421875 24.453125 C25.11699219 25.071875 24.49179687 25.690625 23.84765625 26.328125 C23.19667969 26.96234375 22.54570312 27.5965625 21.875 28.25 C21.21628906 28.8996875 20.55757813 29.549375 19.87890625 30.21875 C18.25703357 31.81711727 16.6306719 33.41061897 15 35 C19.09437424 40.84779046 23.65303753 45.77895086 28.828125 50.703125 C30.78222496 52.76969115 31.92502605 54.3961742 33 57 C26.23991657 57.86457517 26.23991657 57.86457517 23.07568359 55.65820312 C21.16750273 53.76594517 19.4182648 51.80563943 17.6875 49.75 C17.08099609 49.06808594 16.47449219 48.38617188 15.84960938 47.68359375 C13.07733969 44.54229806 10.51754705 41.3567294 8 38 C7.67 44.27 7.34 50.54 7 57 C4.69 57 2.38 57 0 57 C0 38.19 0 19.38 0 0 Z " fill="#44BAFF" transform="translate(467,28)"/>
<path d="M0 0 C5.29267018 1.7321466 7.31970301 4.19329662 10 9 C10.45410156 12.52685547 10.45410156 12.52685547 10.390625 16.3671875 C10.38496521 17.04677521 10.37930542 17.72636292 10.37347412 18.42654419 C10.35125351 20.57677549 10.30109198 22.72528074 10.25 24.875 C10.22991614 26.3411216 10.21166868 27.80726958 10.1953125 29.2734375 C10.15143811 32.84951008 10.08251443 36.42458631 10 40 C8.02 40 6.04 40 4 40 C3.98598145 38.82026611 3.98598145 38.82026611 3.97167969 37.61669922 C3.91782718 34.03550762 3.83420637 30.45560117 3.75 26.875 C3.73582031 25.6375 3.72164063 24.4 3.70703125 23.125 C3.6262215 14.19548456 3.6262215 14.19548456 -1 7 C-3.6483376 5.77323527 -6.10721528 5.74644915 -9 6 C-12.76218332 7.5884774 -14.88345206 9.54093477 -17 13 C-17.50253145 15.9935686 -17.50253145 15.9935686 -17.51171875 19.296875 C-17.56489258 21.10478516 -17.56489258 21.10478516 -17.61914062 22.94921875 C-17.64169922 24.20347656 -17.66425781 25.45773438 -17.6875 26.75 C-17.72166016 28.01972656 -17.75582031 29.28945312 -17.79101562 30.59765625 C-17.87349001 33.73168274 -17.94264484 36.86542955 -18 40 C-20.31 40 -22.62 40 -25 40 C-25 27.13 -25 14.26 -25 1 C-23.02 1 -21.04 1 -19 1 C-18.67 2.65 -18.34 4.3 -18 6 C-17.62230469 5.566875 -17.24460937 5.13375 -16.85546875 4.6875 C-11.66885265 -0.55984931 -7.1770049 -1.07329832 0 0 Z " fill="#3CB7FF" transform="translate(451,45)"/>
<path d="M0 0 C3.68443887 2.10539364 5.43509729 4.11495893 7 8 C7.30078125 10.83984375 7.30078125 10.83984375 7.3125 13.9375 C7.32925781 14.95714844 7.34601563 15.97679688 7.36328125 17.02734375 C6.80245908 21.61643696 4.53160884 25.05699263 1 28 C-2.75535411 29.2517847 -6.11710414 29.77373976 -10 29 C-13.3249149 26.93384829 -16.23445396 24.53109208 -18 21 C-19.03836143 8.67584135 -19.03836143 8.67584135 -16.1875 4.3125 C-11.30496239 -0.84903976 -6.76427282 -0.81210889 0 0 Z " fill="#FBFDFF" transform="translate(259,51)"/>
<path d="M0 0 C4.87064468 2.05079776 7.85675364 5.0698221 10 9.875 C10.495 11.421875 10.495 11.421875 11 13 C7.75 13.3125 7.75 13.3125 4 13 C1.875 10.625 1.875 10.625 0 8 C-3.68876866 5.74575248 -6.90666258 5.73405575 -11.06640625 6.38671875 C-14.28586864 7.40784116 -15.95931726 9.40276742 -18 12 C-19.54199073 16.62597218 -19.51070589 21.16899834 -19 26 C-17.01031547 29.91075925 -15.63466354 31.57689098 -12 34 C-7.68997073 34.62148362 -3.99582196 34.43567211 0 32.6875 C2.26489937 31.073876 2.26489937 31.073876 3 28 C5.31 28 7.62 28 10 28 C9.70802098 31.40642186 9.05504603 32.93200196 6.875 35.625 C1.48892562 40.07436579 -3.60820207 41.63837939 -10.50390625 41.41796875 C-15.94549125 40.50678003 -19.66148137 37.40896698 -23.375 33.5 C-27.42484076 27.26947576 -27.91794207 21.28675666 -27 14 C-22.30386055 1.70538599 -12.25038485 -1.39544362 0 0 Z " fill="#40B9FF" transform="translate(178,45)"/>
<path d="M0 0 C1.98 0 3.96 0 6 0 C6 16.5 6 33 6 50 C14.58 50 23.16 50 32 50 C32 51.65 32 53.3 32 55 C21.44 55 10.88 55 0 55 C0 36.85 0 18.7 0 0 Z " fill="#38B6FF" transform="translate(374,30)"/>
<path d="M0 0 C2.31 0 4.62 0 7 0 C7 18.81 7 37.62 7 57 C4.69 57 2.38 57 0 57 C0 38.19 0 19.38 0 0 Z " fill="#45BAFF" transform="translate(278,28)"/>
<path d="M0 0 C1.98 0 3.96 0 6 0 C6.66 1.65 7.32 3.3 8 5 C9.5159375 3.7625 9.5159375 3.7625 11.0625 2.5 C14.75145487 -0.17261016 17.42010577 -0.46733615 22 0 C22 2.31 22 4.62 22 7 C21.32453125 7.08636719 20.6490625 7.17273437 19.953125 7.26171875 C19.06109375 7.40222656 18.1690625 7.54273438 17.25 7.6875 C16.36828125 7.81511719 15.4865625 7.94273438 14.578125 8.07421875 C11.10660265 9.32081087 10.027239 10.94542969 8 14 C7.36639024 16.9817875 7.36639024 16.9817875 7.390625 20.17578125 C7.35839844 21.33271484 7.32617188 22.48964844 7.29296875 23.68164062 C7.27878906 24.87982422 7.26460938 26.07800781 7.25 27.3125 C7.22035156 28.53001953 7.19070313 29.74753906 7.16015625 31.00195312 C7.08958177 34.00136833 7.03682136 37.0000117 7 40 C4.69 40 2.38 40 0 40 C0 26.8 0 13.6 0 0 Z " fill="#44BAFF" transform="translate(331,45)"/>
<path d="M0 0 C1.98 0 3.96 0 6 0 C6 12.87 6 25.74 6 39 C4.02 39 2.04 39 0 39 C0 26.13 0 13.26 0 0 Z " fill="#38B6FF" transform="translate(412,46)"/>
<path d="M0 0 C0.74507813 0.01353516 1.49015625 0.02707031 2.2578125 0.04101562 C4.08885416 0.07622796 5.91952169 0.13003149 7.75 0.1875 C7.14340871 5.44875098 6.5677739 8.3697261 2.75 12.1875 C-1.85676519 13.7230884 -6.27826081 14.02548916 -10.75 12.125 C-12.25 10.1875 -12.25 10.1875 -12.75 6.6875 C-12.25 3.1875 -12.25 3.1875 -10.734375 1.48046875 C-7.20678619 -0.35543046 -3.87151744 -0.13338267 0 0 Z " fill="#FBFDFF" transform="translate(310.25,66.8125)"/>
<path d="M0 0 C1.010625 0.0825 2.02125 0.165 3.0625 0.25 C5.0625 3.25 5.0625 3.25 4.8125 5.3125 C4.0625 7.25 4.0625 7.25 2.0625 9.25 C-1.23464793 8.92028521 -2.5601839 8.6273161 -4.9375 6.25 C-4.21909413 0.35907184 -4.21909413 0.35907184 0 0 Z " fill="#48BCFF" transform="translate(414.9375,27.75)"/>
</svg>
