<?xml version="1.0" encoding="UTF-8"?>
<svg version="1.1" xmlns="http://www.w3.org/2000/svg" width="486" height="114">
<path d="M0 0 C3.45457941 3.34890992 4.90919219 6.14432436 5.125 11 C5.08375 11.721875 5.0425 12.44375 5 13.1875 C2.36 13.1875 -0.28 13.1875 -3 13.1875 C-3.1959375 12.63320313 -3.391875 12.07890625 -3.59375 11.5078125 C-5.3647744 7.14434151 -5.3647744 7.14434151 -8.80078125 4.10546875 C-12.58668178 2.96602296 -15.27125435 2.99125694 -18.9375 4.5 C-21.79435288 5.88916686 -21.79435288 5.88916686 -23 7.1875 C-23.60600251 11.27569229 -23.60600251 11.27569229 -23 15.1875 C-18.14963527 19.17440971 -12.68346873 20.921453 -6.83398438 22.8984375 C-1.43236149 24.80670314 2.52183134 26.99573268 5.8125 31.875 C7.55305017 36.73021889 7.95739071 41.17081608 6.37890625 46.14453125 C4.40280377 50.17578032 1.56807897 53.09293262 -2.328125 55.3046875 C-9.3837485 57.63593152 -18.95531511 57.61635924 -25.75 54.5 C-30.95964982 50.79313378 -33.4156558 47.39284811 -35 41.1875 C-35 39.8675 -35 38.5475 -35 37.1875 C-32.03 37.1875 -29.06 37.1875 -26 37.1875 C-25.773125 38.26 -25.54625 39.3325 -25.3125 40.4375 C-23.82699746 44.68179296 -22.85265126 45.96152372 -19 48.1875 C-13.79827553 49.53609523 -9.95894469 49.28551506 -5 47.1875 C-2.47698954 44.34911323 -1.9850232 42.92136299 -2.0625 39.125 C-3.19042696 35.59082884 -4.12250681 34.529122 -7 32.1875 C-10.64921723 30.48533742 -14.46874952 29.23748487 -18.26953125 27.91992188 C-24.13517825 25.78740296 -29.12238785 23.43064826 -32.375 17.8125 C-33.47385082 13.19732655 -33.48932865 9.54674626 -31.875 5.0625 C-28.46877172 -0.16038336 -25.24405286 -2.77265887 -19.25 -4.25 C-12.12732376 -5.35321151 -5.72967955 -4.59086125 0 0 Z " fill="#41B4F5" transform="translate(144,27.8125)"/>
<path d="M0 0 C0.83144531 -0.03738281 1.66289063 -0.07476562 2.51953125 -0.11328125 C8.56045169 0.85078951 12.7987772 5.60498957 16.9375 9.8125 C17.65873047 10.52212891 17.65873047 10.52212891 18.39453125 11.24609375 C22.47245846 15.34673922 24.4699165 18.24825646 24.5625 24.0625 C24.37575932 32.01065009 20.60399793 37.20216044 15.5546875 43.0625 C14.1875 44.3125 14.1875 44.3125 12.1875 44.3125 C11.95289063 44.87195312 11.71828125 45.43140625 11.4765625 46.0078125 C8.74931123 50.88380719 4.22820964 54.52284036 0.1875 58.3125 C-0.47765625 58.94414063 -1.1428125 59.57578125 -1.828125 60.2265625 C-7.03164905 64.66486242 -12.96868883 66.46262231 -19.8125 66.3125 C-25.16883724 64.57288601 -28.86229856 61.91661351 -32.75 57.9375 C-33.24306641 57.46828125 -33.73613281 56.9990625 -34.24414062 56.515625 C-36.58165561 54.16838388 -37.7581013 52.80275992 -38.12890625 49.4609375 C-38.02449219 48.75195312 -37.92007813 48.04296875 -37.8125 47.3125 C-35.75 46.4375 -35.75 46.4375 -32.8125 46.3125 C-30.16461313 47.99204808 -27.8822273 49.95647037 -25.8125 52.3125 C-25.8125 52.9725 -25.8125 53.6325 -25.8125 54.3125 C-25.1525 54.3125 -24.4925 54.3125 -23.8125 54.3125 C-23.8125 54.9725 -23.8125 55.6325 -23.8125 56.3125 C-20.14056676 57.53647775 -16.61547686 58.03846231 -12.8125 57.3125 C-6.46306367 53.92046482 -1.66110126 48.49183479 3.375 43.4375 C4.72754883 42.10912109 4.72754883 42.10912109 6.10742188 40.75390625 C6.97302734 39.88894531 7.83863281 39.02398437 8.73046875 38.1328125 C9.51446045 37.35180176 10.29845215 36.57079102 11.10620117 35.76611328 C14.25978439 32.04839934 16.13075314 28.84466526 16.3125 23.9375 C14.74865702 18.89845039 11.88186242 15.97515116 8.1875 12.3125 C7.40375 11.466875 6.62 10.62125 5.8125 9.75 C2.47066876 7.91994956 0.38168048 7.77507527 -3.3515625 8.3828125 C-9.40330924 10.66902794 -13.67299826 16.10671421 -18.08203125 20.65234375 C-19.12423828 21.72162109 -19.12423828 21.72162109 -20.1875 22.8125 C-20.79335938 23.4621875 -21.39921875 24.111875 -22.0234375 24.78125 C-23.99539836 26.46904183 -25.24851336 27.01706121 -27.8125 27.3125 C-28.4725 26.9825 -29.1325 26.6525 -29.8125 26.3125 C-30.2890625 23.7890625 -30.2890625 23.7890625 -29.8125 20.3125 C-27.59771109 17.41339218 -24.92073591 15.09044996 -22.1875 12.6875 C-21.11822266 11.70523437 -21.11822266 11.70523437 -20.02734375 10.703125 C-8.49269645 0.24786672 -8.49269645 0.24786672 0 0 Z " fill="#45B3F1" transform="translate(81.8125,10.6875)"/>
<path d="M0 0 C10.36438356 9.06883562 10.36438356 9.06883562 13 12.625 C12.78515625 15.44140625 12.78515625 15.44140625 12 17.625 C9.859375 17.97265625 9.859375 17.97265625 7 17.625 C4.93285606 15.82057966 3.11817843 14.04914828 1.25 12.0625 C-2.6260661 8.23944806 -2.6260661 8.23944806 -7.4296875 5.80078125 C-13.91250411 6.01995121 -18.16086979 10.67281257 -22.46191406 15.06494141 C-24.24821498 16.87676091 -26.07201812 18.64661508 -27.8984375 20.41796875 C-29.26691672 21.75649315 -30.63410489 23.09633876 -32 24.4375 C-32.6595166 25.08348145 -33.3190332 25.72946289 -33.99853516 26.39501953 C-34.61776855 27.0136084 -35.23700195 27.63219727 -35.875 28.26953125 C-36.42929687 28.81971924 -36.98359375 29.36990723 -37.5546875 29.93676758 C-40.57897537 33.46936059 -41.62055238 36.83481812 -41.515625 41.5390625 C-40.49336776 45.67455771 -37.10334908 47.93890794 -34 50.625 C-33.195625 51.594375 -32.39125 52.56375 -31.5625 53.5625 C-28.69748261 55.86848961 -26.81782111 56.18389564 -23.16015625 56.19140625 C-15.93688565 54.29742029 -10.97509757 47.6709078 -6.12304688 42.40625 C-1.62368401 37.71469091 -1.62368401 37.71469091 1.93359375 37.203125 C2.61550781 37.34234375 3.29742187 37.4815625 4 37.625 C4.8125 39.8125 4.8125 39.8125 5 42.625 C3.40202434 44.35763653 1.71766763 46.01094503 0 47.625 C-1.04554651 48.69548402 -2.0857207 49.77123561 -3.12109375 50.8515625 C-4.22646522 51.98446992 -5.33193533 53.11728111 -6.4375 54.25 C-6.98470703 54.82234375 -7.53191406 55.3946875 -8.09570312 55.984375 C-13.17289891 61.15169852 -17.81604633 64.04541585 -25.25 64.375 C-32.04598189 64.22776664 -35.21863971 61.86434205 -39.83984375 57.0703125 C-40.90912109 55.85988281 -40.90912109 55.85988281 -42 54.625 C-42.62003906 53.98304687 -43.24007812 53.34109375 -43.87890625 52.6796875 C-47.4797273 48.80988946 -50.01435984 45.19341984 -49.9921875 39.68359375 C-49.37843869 32.6521672 -46.37315787 27.66949611 -41.625 22.5 C-40.87476563 21.67242187 -40.12453125 20.84484375 -39.3515625 19.9921875 C-37 17.625 -37 17.625 -34.4140625 15.5625 C-32.16425618 13.7568302 -30.53680074 11.9970373 -28.75 9.75 C-21.60271781 1.36448252 -10.96363117 -5.02499762 0 0 Z " fill="#3FB5F6" transform="translate(60,42.375)"/>
<path d="M0 0 C3.35791986 2.86651695 5.16608903 4.99826709 6.5625 9.1875 C6.64647157 11.54430213 6.66978187 13.90344081 6.66015625 16.26171875 C6.6587413 16.9455513 6.65732635 17.62938385 6.65586853 18.3339386 C6.65027876 20.51433722 6.63772822 22.69463251 6.625 24.875 C6.61998367 26.35481622 6.615421 27.83463406 6.61132812 29.31445312 C6.60031271 32.93883557 6.58305512 36.5631577 6.5625 40.1875 C4.2525 40.1875 1.9425 40.1875 -0.4375 40.1875 C-0.7675 38.8675 -1.0975 37.5475 -1.4375 36.1875 C-2.035625 36.826875 -2.63375 37.46625 -3.25 38.125 C-7.54777664 42.1771894 -12.65571058 41.51863661 -18.26171875 41.46875 C-22.35810854 41.10597009 -24.49552786 40.05205182 -27.4375 37.1875 C-29.82463778 34.2433634 -30.39942889 32.53648522 -30.8125 28.75 C-30.38579976 24.69634769 -29.80513542 22.51698731 -27.4375 19.1875 C-20.09281969 13.75243657 -11.23510058 14.38744547 -2.4375 14.1875 C-2.73454641 11.25284875 -2.73454641 11.25284875 -3.4375 8.1875 C-6.87397738 5.65105241 -8.85121033 5.16762577 -13.125 5.3125 C-17.85284289 6.56136416 -18.78887106 8.2145566 -21.4375 12.1875 C-23.3828125 12.48046875 -23.3828125 12.48046875 -25.5625 12.375 C-27.480625 12.2821875 -27.480625 12.2821875 -29.4375 12.1875 C-28.98375711 7.30976395 -27.91572112 4.66572112 -24.4375 1.1875 C-16.65910974 -3.44643462 -8.14208399 -4.29309883 0 0 Z M-21.4375 25.1875 C-21.82660922 29.29180276 -21.82660922 29.29180276 -20.3125 33 C-17.59397194 34.72173444 -15.66217704 35.06347396 -12.4375 35.1875 C-8.00127993 33.96371515 -5.38018933 32.6609118 -3 28.75 C-1.16972567 25.22532312 -1.16972567 25.22532312 -1.4375 21.1875 C-3.66605574 21.1060778 -5.89547655 21.04811921 -8.125 21 C-9.36636719 20.96519531 -10.60773438 20.93039063 -11.88671875 20.89453125 C-15.93357131 21.22842998 -18.54992948 22.29992948 -21.4375 25.1875 Z " fill="#40B5F7" transform="translate(329.4375,42.8125)"/>
<path d="M0 0 C2.64 0 5.28 0 8 0 C8.33 7.26 8.66 14.52 9 22 C10.98 20.68 12.96 19.36 15 18 C20.45979971 16.39254628 25.81056691 16.65006804 31 19 C34.24708221 21.98321097 36.59969762 24.79909287 38 29 C38.08397157 31.35680213 38.10728187 33.71594081 38.09765625 36.07421875 C38.0962413 36.7580513 38.09482635 37.44188385 38.09336853 38.1464386 C38.08777876 40.32683722 38.07522822 42.50713251 38.0625 44.6875 C38.05748367 46.16731622 38.052921 47.64713406 38.04882812 49.12695312 C38.03781271 52.75133557 38.02055512 56.3756577 38 60 C35.36 60 32.72 60 30 60 C29.98018066 59.14245117 29.96036133 58.28490234 29.93994141 57.40136719 C29.86170479 54.21052358 29.77500657 51.0200526 29.68261719 47.82958984 C29.64440662 46.45044757 29.60953998 45.07120833 29.578125 43.69189453 C29.53230376 41.70583033 29.47333737 39.72008321 29.4140625 37.734375 C29.36693115 35.94338379 29.36693115 35.94338379 29.31884766 34.11621094 C29.01657507 31.16199407 28.63564795 29.44592278 27 27 C23.98959851 25.19375911 22.02629799 25 18.5 25 C13.79272496 26.34493573 12.72346607 27.99490284 10 32 C8.96285478 35.11143567 8.79968139 37.49468096 8.68359375 40.76171875 C8.64169922 41.87998047 8.59980469 42.99824219 8.55664062 44.15039062 C8.51732422 45.31763672 8.47800781 46.48488281 8.4375 47.6875 C8.39431641 48.86634766 8.35113281 50.04519531 8.30664062 51.25976562 C8.20048824 54.17305883 8.09843758 57.08643757 8 60 C5.36 60 2.72 60 0 60 C0 40.2 0 20.4 0 0 Z " fill="#3AB5FB" transform="translate(198,23)"/>
<path d="M0 0 C2.64 0 5.28 0 8 0 C9.27364614 10.98519792 9.10085216 21.95901625 9 33 C12.22230186 30.52513929 15.00544591 28.04149218 17.625 24.9375 C18.74331784 23.61930182 19.8679469 22.30642146 21 21 C21.46792969 20.42765625 21.93585938 19.8553125 22.41796875 19.265625 C24.57241116 17.54207107 25.96816845 17.69426819 28.6875 17.8125 C29.49574219 17.83957031 30.30398438 17.86664063 31.13671875 17.89453125 C31.75160156 17.92933594 32.36648438 17.96414062 33 18 C32.42439347 21.43679219 31.35138028 22.97180513 28.8046875 25.3125 C28.17175781 25.91320312 27.53882813 26.51390625 26.88671875 27.1328125 C25.54137033 28.38150482 24.19237828 29.6262825 22.83984375 30.8671875 C21.89431641 31.76824219 21.89431641 31.76824219 20.9296875 32.6875 C20.34429199 33.22761719 19.75889648 33.76773438 19.15576172 34.32421875 C17.77781232 35.94231597 17.77781232 35.94231597 18.17358398 38.03613281 C19.4881985 41.16013848 21.85966674 43.35243462 24.1875 45.75 C28.48325601 50.2903319 32.36944909 54.89760412 36 60 C32.13638804 60.71494875 28.84451255 60.89903976 25 60 C21.36652524 56.77711914 18.79456109 52.94812991 16 49 C14.07489793 46.89591117 12.06983445 44.96368909 10 43 C8.95117609 46.56071312 8.69613047 50.05527897 8.4375 53.75 C8.35371094 54.92046875 8.26992188 56.0909375 8.18359375 57.296875 C8.12300781 58.18890625 8.06242187 59.0809375 8 60 C5.36 60 2.72 60 0 60 C0 40.2 0 20.4 0 0 Z " fill="#41B5F5" transform="translate(440,23)"/>
<path d="M0 0 C4.64892 4.64892 6.03368132 9.86157686 6.375 16.3125 C6.21329016 22.22501604 4.48152762 28.16017695 0.5390625 32.671875 C-4.48496879 37.00733347 -8.29293738 38.29126754 -14.875 38.3125 C-16.06867188 38.32925781 -17.26234375 38.34601563 -18.4921875 38.36328125 C-23.90492927 37.80271891 -27.79158493 35.82450401 -31.25 31.625 C-31.72953125 31.06039062 -32.2090625 30.49578125 -32.703125 29.9140625 C-36.88487382 23.74220431 -36.68930532 17.20716698 -36 10 C-34.33261236 3.82966728 -30.37863852 -0.65207194 -25 -4 C-16.09987825 -7.94148249 -7.39014181 -5.93222267 0 0 Z M-23 4 C-27.47702923 8.96103239 -28.29959717 11.92550745 -28.21484375 18.4609375 C-27.81964726 23.13144145 -25.9438246 25.91317167 -22.9375 29.375 C-18.63476509 31.75523633 -14.80903425 31.76057214 -10 31 C-5.64177475 28.77452328 -3.91409637 25.73389857 -2.44140625 21.21484375 C-1.37590127 15.86846038 -2.2852828 11.48441265 -4.625 6.625 C-7.63140607 3.30213014 -9.7618549 2.3870293 -14 1 C-17.8148669 1 -19.72675616 2.06277405 -23 4 Z " fill="#41B4F5" transform="translate(276,46)"/>
<path d="M0 0 C4.52904904 5.03227671 5.12489659 8.40033606 5.09765625 15.07421875 C5.0962413 15.7580513 5.09482635 16.44188385 5.09336853 17.1464386 C5.08777876 19.32683722 5.07522822 21.50713251 5.0625 23.6875 C5.05748367 25.16731622 5.052921 26.64713406 5.04882812 28.12695312 C5.03781271 31.75133557 5.02055512 35.3756577 5 39 C2.36 39 -0.28 39 -3 39 C-3.02505615 38.17798096 -3.0501123 37.35596191 -3.07592773 36.5090332 C-3.19212655 32.77670626 -3.31474505 29.04461683 -3.4375 25.3125 C-3.47681641 24.01892578 -3.51613281 22.72535156 -3.55664062 21.39257812 C-3.59853516 20.14541016 -3.64042969 18.89824219 -3.68359375 17.61328125 C-3.72025146 16.46641846 -3.75690918 15.31955566 -3.79467773 14.13793945 C-3.97840298 11.33006722 -4.3699382 8.73774186 -5 6 C-9.630113 4.54062198 -13.05548232 3.80195597 -17.875 4.8125 C-22.20971318 7.84679923 -22.86667865 10.94918902 -24 16 C-24.45774926 20.02024743 -24.59821252 24.01905262 -24.6875 28.0625 C-24.72166016 29.11888672 -24.75582031 30.17527344 -24.79101562 31.26367188 C-24.87269295 33.84234157 -24.94209943 36.42070562 -25 39 C-27.64 39 -30.28 39 -33 39 C-33.02464638 33.17928378 -33.0428343 27.35859766 -33.05493164 21.5378418 C-33.05997267 19.55606559 -33.06680538 17.57429311 -33.07543945 15.5925293 C-33.08751515 12.75047891 -33.09323045 9.90847753 -33.09765625 7.06640625 C-33.10281754 6.17474258 -33.10797882 5.28307892 -33.11329651 4.36439514 C-33.11349177 2.24259399 -33.0621003 0.1208922 -33 -2 C-32 -3 -32 -3 -28.9375 -3.0625 C-27.4834375 -3.0315625 -27.4834375 -3.0315625 -26 -3 C-25.34 -1.68 -24.68 -0.36 -24 1 C-23.113125 0.360625 -22.22625 -0.27875 -21.3125 -0.9375 C-14.49933131 -5.17966164 -6.45458789 -5.02023503 0 0 Z " fill="#47B3F0" transform="translate(430,44)"/>
<path d="M0 0 C4 5.98309859 4 5.98309859 4 9 C0.95139538 9.28760421 -1.96319191 9.45415328 -5 9 C-6.03789581 7.35666496 -7.03567924 5.68756133 -8 4 C-12.22744598 2.05812441 -16.4497956 1.41822481 -20.875 3 C-24.69149172 5.4425547 -25.68356119 6.66349569 -27 11 C-27.51618774 15.9510402 -27.68242833 20.36217201 -25.75 25 C-23.07164595 28.06097605 -21.10950852 29.65481957 -17.1875 30.875 C-13.01406595 31.03866408 -10.61973601 30.04890717 -7 28 C-6.505 27.113125 -6.01 26.22625 -5.5 25.3125 C-5.005 24.549375 -4.51 23.78625 -4 23 C-0.3125 22.6875 -0.3125 22.6875 3 23 C4 26 4 26 3.25 27.90234375 C0.35849182 32.6100805 -2.45844657 36.48176618 -8 38 C-15.03155964 38.80360682 -22.16726471 39.1104054 -28.38671875 35.328125 C-33.29883359 31.28425322 -35.9565048 26.26097119 -37 20 C-37.08191389 13.17042949 -36.37583828 6.47577577 -32 1 C-22.57498855 -7.20656891 -9.67514887 -8.97626678 0 0 Z " fill="#39B7FA" transform="translate(190,46)"/>
<path d="M0 0 C1.134375 0.020625 2.26875 0.04125 3.4375 0.0625 C4.72896455 2.64542911 4.56455706 4.50636243 4.56689453 7.3984375 C4.57004669 8.51299316 4.57319885 9.62754883 4.57644653 10.77587891 C4.5744223 11.98421387 4.57239807 13.19254883 4.5703125 14.4375 C4.57126923 15.67290527 4.57222595 16.90831055 4.57321167 18.18115234 C4.57406804 21.46836084 4.57003344 24.75552236 4.56445312 28.04272461 C4.56250203 30.06039941 4.56444592 32.07803072 4.56787109 34.09570312 C4.57402992 37.95965613 4.57330484 41.82354435 4.5703125 45.6875 C4.57233673 46.89583496 4.57436096 48.10416992 4.57644653 49.34912109 C4.57329437 50.46367676 4.57014221 51.57823242 4.56689453 52.7265625 C4.56570114 54.20310303 4.56570114 54.20310303 4.56448364 55.70947266 C4.4375 58.0625 4.4375 58.0625 3.4375 60.0625 C0.7975 60.0625 -1.8425 60.0625 -4.5625 60.0625 C-4.58562821 52.38713373 -4.60341753 44.71177104 -4.61431217 37.03637791 C-4.61953995 33.47272578 -4.62663569 29.90909743 -4.63793945 26.34545898 C-4.65084176 22.25243903 -4.65572906 18.1594442 -4.66015625 14.06640625 C-4.66531754 12.78101456 -4.67047882 11.49562286 -4.67579651 10.17127991 C-4.67587204 8.99013107 -4.67594757 7.80898224 -4.67602539 6.59204102 C-4.678246 5.54613297 -4.68046661 4.50022491 -4.68275452 3.42262268 C-4.48754325 -0.40860589 -3.99174526 0.07003062 0 0 Z " fill="#32BDFD" transform="translate(371.5625,22.9375)"/>
<path d="M0 0 C2.64 0 5.28 0 8 0 C8.97256726 2.91770179 9.12658718 4.78306161 9.12939453 7.81933594 C9.13254669 8.7975531 9.13569885 9.77577026 9.13894653 10.78363037 C9.1369223 11.8398761 9.13489807 12.89612183 9.1328125 13.984375 C9.13376923 15.07333069 9.13472595 16.16228638 9.13571167 17.28424072 C9.13639267 19.59086159 9.13454393 21.89748437 9.13037109 24.20410156 C9.12504234 27.72204953 9.13030814 31.23986862 9.13671875 34.7578125 C9.13605755 37.00000028 9.13477552 39.24218798 9.1328125 41.484375 C9.13483673 42.5325238 9.13686096 43.58067261 9.13894653 44.6605835 C9.12233401 49.88243518 8.90989437 54.85507593 8 60 C5.36 60 2.72 60 0 60 C0 40.2 0 20.4 0 0 Z " fill="#3BB8F8" transform="translate(286,23)"/>
<path d="M0 0 C0.04241723 2.33294775 0.04092937 4.66702567 0 7 C-1.87329109 8.87329109 -5.12659505 8.72173016 -7.67578125 9.109375 C-11.21337859 10.46495852 -12.16574111 11.63036816 -14 15 C-14.60506476 19.22521087 -14.6513897 23.42407724 -14.6875 27.6875 C-14.72946126 29.96230907 -14.77485662 32.23705824 -14.82421875 34.51171875 C-14.83541748 35.51678467 -14.84661621 36.52185059 -14.8581543 37.55737305 C-15 40 -15 40 -16 42 C-18.33294775 42.04241723 -20.66702567 42.04092937 -23 42 C-24.89623202 40.10376798 -24.12897626 37.33629641 -24.13894653 34.8137207 C-24.1369223 33.94706787 -24.13489807 33.08041504 -24.1328125 32.1875 C-24.13376923 31.30344482 -24.13472595 30.41938965 -24.13571167 29.50854492 C-24.13639351 27.63557871 -24.13453893 25.76261014 -24.13037109 23.88964844 C-24.12502289 21.01231612 -24.13031593 18.13513992 -24.13671875 15.2578125 C-24.13605797 13.44270799 -24.13477681 11.62760357 -24.1328125 9.8125 C-24.13483673 8.94584717 -24.13686096 8.07919434 -24.13894653 7.1862793 C-24.11495009 1.11495009 -24.11495009 1.11495009 -23 0 C-21.00041636 -0.04080783 -18.99954746 -0.04254356 -17 0 C-16.34 1.65 -15.68 3.3 -15 5 C-14.319375 4.38125 -13.63875 3.7625 -12.9375 3.125 C-8.78931252 0.12418352 -4.99728921 -1.66576307 0 0 Z " fill="#3EB8F5" transform="translate(365,41)"/>
<path d="M0 0 C1.134375 0.020625 2.26875 0.04125 3.4375 0.0625 C4.35593038 4.73764809 4.58391791 9.26727011 4.5703125 14.015625 C4.57126923 14.7570575 4.57222595 15.49848999 4.57321167 16.26239014 C4.57388853 17.81880784 4.57206889 19.37522844 4.56787109 20.93164062 C4.56248517 23.31907411 4.56784836 25.70632207 4.57421875 28.09375 C4.57355848 29.60937542 4.57227837 31.12500072 4.5703125 32.640625 C4.57233673 33.3551886 4.57436096 34.0697522 4.57644653 34.80596924 C4.5524828 39.8325344 4.5524828 39.8325344 3.4375 42.0625 C0.7975 42.0625 -1.8425 42.0625 -4.5625 42.0625 C-4.58714638 36.24178378 -4.6053343 30.42109766 -4.61743164 24.6003418 C-4.62247267 22.61856559 -4.62930538 20.63679311 -4.63793945 18.6550293 C-4.65001515 15.81297891 -4.65573045 12.97097753 -4.66015625 10.12890625 C-4.66531754 9.23724258 -4.67047882 8.34557892 -4.67579651 7.42689514 C-4.67599177 5.30509399 -4.6246003 3.1833922 -4.5625 1.0625 C-3.5625 0.0625 -3.5625 0.0625 0 0 Z " fill="#38BBF8" transform="translate(386.5625,40.9375)"/>
<path d="M0 0 C-3.47035782 2.31357188 -5.90752784 2.48844098 -10 3 C-10.99 3.33 -11.98 3.66 -13 4 C-13 5.32 -13 6.64 -13 8 C-12.34 8 -11.68 8 -11 8 C-11 7.34 -11 6.68 -11 6 C-9.02 6 -7.04 6 -5 6 C-5.825 6.53625 -6.65 7.0725 -7.5 7.625 C-10.26275975 9.79568919 -10.26275975 9.79568919 -10.625 13.0625 C-10.26292738 16.1056614 -10.26292738 16.1056614 -8 17.9375 C-3.89977168 19.3896642 -1.25408568 18.79313462 3 18 C3 18.66 3 19.32 3 20 C2.01 20.33 1.02 20.66 0 21 C-0.33 21.99 -0.66 22.98 -1 24 C2.465 23.505 2.465 23.505 6 23 C5.67 23.66 5.34 24.32 5 25 C-1.29151866 27.09717289 -8.62205253 27.10697555 -14.625 24.3125 C-18.21008776 20.82175665 -19.82491205 18.60497291 -20.375 13.5625 C-19.94829976 9.50884769 -19.36763542 7.32948731 -17 4 C-11.68444633 -0.03033764 -6.49061554 -0.54088463 0 0 Z " fill="#4CB2EE" transform="translate(319,58)"/>
<path d="M0 0 C10.36438356 9.06883562 10.36438356 9.06883562 13 12.625 C12.78515625 15.44140625 12.78515625 15.44140625 12 17.625 C9.859375 17.96875 9.859375 17.96875 7 17.625 C4.92763658 15.84207281 3.11509867 14.09975675 1.25 12.125 C-2.70639534 8.13345437 -2.70639534 8.13345437 -7.78125 5.89453125 C-10.48054603 5.87434915 -10.48054603 5.87434915 -14 6.625 C-12.72265625 5.12890625 -12.72265625 5.12890625 -11 3.625 C-8.66702567 3.58407063 -6.33294775 3.58258277 -4 3.625 C-3.34 2.965 -2.68 2.305 -2 1.625 C-3.45635371 1.40325067 -4.91522956 1.19801302 -6.375 1 C-7.59316406 0.82597656 -7.59316406 0.82597656 -8.8359375 0.6484375 C-9.55007812 0.64070313 -10.26421875 0.63296875 -11 0.625 C-11.66 1.285 -12.32 1.945 -13 2.625 C-13.598125 2.769375 -14.19625 2.91375 -14.8125 3.0625 C-17.56483907 3.77024433 -19.60735175 5.11385373 -22 6.625 C-22.99 7.12 -22.99 7.12 -24 7.625 C-22.49364535 3.40720697 -19.75987578 1.8502326 -16 -0.375 C-10.66620927 -2.15293024 -5.15190546 -2.36129 0 0 Z " fill="#3FB4F7" transform="translate(60,42.375)"/>
<path d="M0 0 C0.66 0.99 1.32 1.98 2 3 C2.53471924 3.76401123 3.06943848 4.52802246 3.62036133 5.31518555 C5.2615683 8.50901905 5.27522017 10.39382417 5.07421875 13.95703125 C4.99204102 15.62475586 4.99204102 15.62475586 4.90820312 17.32617188 C4.83537109 18.47666016 4.76253906 19.62714844 4.6875 20.8125 C4.62626953 21.98232422 4.56503906 23.15214844 4.50195312 24.35742188 C4.34903232 27.23939083 4.18122908 30.11969548 4 33 C2.02 33 0.04 33 -2 33 C-2 22.44 -2 11.88 -2 1 C-1.34 0.67 -0.68 0.34 0 0 Z " fill="#37B7FE" transform="translate(401,50)"/>
<path d="M0 0 C2.64 0 5.28 0 8 0 C7.67 1.32 7.34 2.64 7 4 C7 3.01 7 2.02 7 1 C5.02 1 3.04 1 1 1 C1 13.87 1 26.74 1 40 C2.32 40.33 3.64 40.66 5 41 C7.45391569 44.68087353 7.22802759 47.44355588 7.125 51.6875 C7.11597656 52.38939453 7.10695313 53.09128906 7.09765625 53.81445312 C7.07413704 55.54311525 7.03826713 57.27160145 7 59 C3.535 59.495 3.535 59.495 0 60 C0 40.2 0 20.4 0 0 Z " fill="#43B2F2" transform="translate(440,23)"/>
<path d="M0 0 C2.64 0 5.28 0 8 0 C8.33 7.26 8.66 14.52 9 22 C9.99 22 10.98 22 12 22 C10.625 24 10.625 24 9 26 C8.34 26 7.68 26 7 26 C7 17.75 7 9.5 7 1 C5.35 1.33 3.7 1.66 2 2 C1.67 20.81 1.34 39.62 1 59 C2.98 59 4.96 59 7 59 C6.98952637 58.24380371 6.97905273 57.48760742 6.96826172 56.70849609 C6.92654584 53.26403155 6.90062417 49.8196203 6.875 46.375 C6.85824219 45.18519531 6.84148437 43.99539062 6.82421875 42.76953125 C6.81777344 41.61582031 6.81132812 40.46210937 6.8046875 39.2734375 C6.79421387 38.21560059 6.78374023 37.15776367 6.77294922 36.06787109 C7.01729143 32.76636112 7.83117023 30.08587237 9 27 C9.99 27 10.98 27 12 27 C12 26.01 12 25.02 12 24 C12.99 24.33 13.98 24.66 15 25 C14.47599609 25.70576172 14.47599609 25.70576172 13.94140625 26.42578125 C13.48636719 27.04839844 13.03132812 27.67101562 12.5625 28.3125 C11.88380859 29.23482422 11.88380859 29.23482422 11.19140625 30.17578125 C8.93805893 33.62598845 8.82618407 36.74881983 8.68359375 40.76171875 C8.64169922 41.87998047 8.59980469 42.99824219 8.55664062 44.15039062 C8.51732422 45.31763672 8.47800781 46.48488281 8.4375 47.6875 C8.39431641 48.86634766 8.35113281 50.04519531 8.30664062 51.25976562 C8.20048824 54.17305883 8.09843758 57.08643757 8 60 C5.36 60 2.72 60 0 60 C0 40.2 0 20.4 0 0 Z " fill="#57AEE3" transform="translate(198,23)"/>
<path d="M0 0 C0.04241723 2.33294775 0.04092937 4.66702567 0 7 C-1.52025035 8.52025035 -3.21424537 8.4065868 -5.3125 8.75 C-8.72358363 9.48210857 -9.85743123 9.86812388 -12.5 12.3125 C-13.97726891 14.95927347 -14.65750322 17.00315321 -15 20 C-15.33 20 -15.66 20 -16 20 C-15.67 16.7 -15.34 13.4 -15 10 C-15.99 9.67 -16.98 9.34 -18 9 C-17.01 9 -16.02 9 -15 9 C-14.95875 8.2575 -14.9175 7.515 -14.875 6.75 C-13.62494489 2.82125538 -11.56026551 1.91706604 -8 0 C-4.58593331 -1.0321597 -3.42913537 -1.14304512 0 0 Z " fill="#49B1EB" transform="translate(365,41)"/>
<path d="M0 0 C1.134375 0.020625 2.26875 0.04125 3.4375 0.0625 C3.4375 0.7225 3.4375 1.3825 3.4375 2.0625 C1.4575 2.0625 -0.5225 2.0625 -2.5625 2.0625 C-2.5625 21.2025 -2.5625 40.3425 -2.5625 60.0625 C-3.2225 60.0625 -3.8825 60.0625 -4.5625 60.0625 C-4.58562821 52.38713373 -4.60341753 44.71177104 -4.61431217 37.03637791 C-4.61953995 33.47272578 -4.62663569 29.90909743 -4.63793945 26.34545898 C-4.65084176 22.25243903 -4.65572906 18.1594442 -4.66015625 14.06640625 C-4.66531754 12.78101456 -4.67047882 11.49562286 -4.67579651 10.17127991 C-4.67587204 8.99013107 -4.67594757 7.80898224 -4.67602539 6.59204102 C-4.678246 5.54613297 -4.68046661 4.50022491 -4.68275452 3.42262268 C-4.48754325 -0.40860589 -3.99174526 0.07003062 0 0 Z " fill="#52A9E6" transform="translate(371.5625,22.9375)"/>
<path d="M0 0 C0.66 0.99 1.32 1.98 2 3 C4.89002409 7.23182099 7.01484859 8.75371215 12 10 C12 10.33 12 10.66 12 11 C9.69 11 7.38 11 5 11 C5 11.99 5 12.98 5 14 C7.70183055 15.35091528 10.11808206 15.33858058 13.125 15.5625 C14.76855469 15.68818359 14.76855469 15.68818359 16.4453125 15.81640625 C17.28835938 15.87699219 18.13140625 15.93757813 19 16 C19 16.33 19 16.66 19 17 C4.72410345 17.5718831 4.72410345 17.5718831 0 14 C-3.10406663 10.88857776 -5.59808555 8.20574336 -7 4 C-5.68 4 -4.36 4 -3 4 C-2.34 3.01 -1.68 2.02 -1 1 C-0.67 0.67 -0.34 0.34 0 0 Z " fill="#42B4F4" transform="translate(248,67)"/>
<path d="M0 0 C3.70341986 3.32694929 4.96006214 6.71001757 5.28955078 11.66333008 C5.27907715 12.93587646 5.26860352 14.20842285 5.2578125 15.51953125 C5.2549826 16.20053391 5.25215271 16.88153656 5.24923706 17.58317566 C5.23810525 19.74313455 5.21301457 21.90266794 5.1875 24.0625 C5.17746111 25.53319711 5.16833685 27.00390076 5.16015625 28.47460938 C5.13818913 32.06654286 5.1037082 35.65822985 5.0625 39.25 C4.7325 39.25 4.4025 39.25 4.0625 39.25 C4.04268066 38.43845459 4.02286133 37.62690918 4.00244141 36.79077148 C3.90678163 33.08937251 3.79726786 29.38850635 3.6875 25.6875 C3.6565625 24.41068359 3.625625 23.13386719 3.59375 21.81835938 C3.4015309 15.65132989 3.21324689 10.06401091 1.0625 4.25 C-1.4125 3.755 -1.4125 3.755 -3.9375 3.25 C-3.9375 4.9 -3.9375 6.55 -3.9375 8.25 C-4.411875 7.775625 -4.88625 7.30125 -5.375 6.8125 C-9.05394797 4.56923904 -12.6996112 4.51260422 -16.9375 4.25 C-16.9375 3.59 -16.9375 2.93 -16.9375 2.25 C-16.01517578 2.28480469 -16.01517578 2.28480469 -15.07421875 2.3203125 C-13.86185547 2.34738281 -13.86185547 2.34738281 -12.625 2.375 C-11.42423828 2.40980469 -11.42423828 2.40980469 -10.19921875 2.4453125 C-7.65361424 2.40817322 -7.65361424 2.40817322 -4.9375 0.25 C-4.9375 -0.41 -4.9375 -1.07 -4.9375 -1.75 C-6.85447937 -1.60833643 -8.77107723 -1.46150416 -10.6875 -1.3125 C-12.28851563 -1.19068359 -12.28851563 -1.19068359 -13.921875 -1.06640625 C-16.37429962 -0.80909227 -18.57671291 -0.43187782 -20.9375 0.25 C-19.34420194 -1.67872923 -18.18932873 -2.66111927 -15.8125 -3.5 C-9.78138179 -4.02444506 -4.85934913 -3.94631902 0 0 Z " fill="#53AFE8" transform="translate(230.9375,43.75)"/>
<path d="M0 0 C5.88038537 0.28684807 9.14773466 2.80214885 13 7 C14.92164521 10.42554145 15.22270002 13.10274971 15 17 C12.36 17 9.72 17 7 17 C5.68 14.03 4.36 11.06 3 8 C6 9 6 9 8 11 C8 9.02 8 7.04 8 5 C5.50935112 4.31292445 3.62113708 4 1 4 C0.67 2.68 0.34 1.36 0 0 Z " fill="#43B5F5" transform="translate(134,24)"/>
<path d="M0 0 C4.99472507 0.28541286 7.44211087 2.7730773 11 6 C10.62875 7.0725 10.2575 8.145 9.875 9.25 C8.94440508 13.23826396 9.04118058 13.72079119 11 17 C-0.85579056 7.05753587 -0.85579056 7.05753587 -1.375 3.25 C-1 1 -1 1 0 0 Z " fill="#36B9FC" transform="translate(45,57)"/>
<path d="M0 0 C4.00631009 2.03957605 6.57198777 4.22309209 9 8 C7.68 8 6.36 8 5 8 C4.35160156 8.17273437 3.70320313 8.34546875 3.03515625 8.5234375 C0.66693405 9.07799241 -1.15507122 8.92643778 -3.5625 8.625 C-4.32691406 8.53476562 -5.09132813 8.44453125 -5.87890625 8.3515625 C-8 8 -8 8 -11 7 C-7.3350733 4.55671553 -5.30956914 5 -1 5 C-0.34 4.34 0.32 3.68 1 3 C-0.45635371 2.77825067 -1.91522956 2.57301302 -3.375 2.375 C-4.59316406 2.20097656 -4.59316406 2.20097656 -5.8359375 2.0234375 C-6.55007812 2.01570313 -7.26421875 2.00796875 -8 2 C-8.66 2.66 -9.32 3.32 -10 4 C-10.598125 4.144375 -11.19625 4.28875 -11.8125 4.4375 C-14.56483907 5.14524433 -16.60735175 6.48885373 -19 8 C-19.99 8.495 -19.99 8.495 -21 9 C-19.49364535 4.78220697 -16.75987578 3.2252326 -13 1 C-8.65201052 -0.44932983 -4.54404655 -0.51669065 0 0 Z " fill="#4BB2EE" transform="translate(57,41)"/>
<path d="M0 0 C3.125 0.25 3.125 0.25 5.0625 1.375 C6.125 3.25 6.125 3.25 5.9375 6.375 C5.669375 7.32375 5.40125 8.2725 5.125 9.25 C2.33636993 10.64431504 0.20421132 10.50660094 -2.875 10.25 C-4.875 7.25 -4.875 7.25 -4.5625 4.125 C-3.65202703 0.31756757 -3.65202703 0.31756757 0 0 Z " fill="#44B2ED" transform="translate(385.875,22.75)"/>
<path d="M0 0 C0.474375 0.474375 0.94875 0.94875 1.4375 1.4375 C0.1175 1.4375 -1.2025 1.4375 -2.5625 1.4375 C-2.5625 2.7575 -2.5625 4.0775 -2.5625 5.4375 C-1.5725 5.4375 -0.5825 5.4375 0.4375 5.4375 C4.62362158 12.10913126 5.84860737 18.59340315 4.4375 26.4375 C2.40625 28.828125 2.40625 28.828125 0.4375 30.4375 C0.788125 29.303125 1.13875 28.16875 1.5 27 C3.02095203 20.81771297 2.57984379 15.6813896 -0.3125 10 C-2.65317789 7.33422796 -4.18190579 6.37655395 -7.5625 5.4375 C-7.2325 4.7775 -6.9025 4.1175 -6.5625 3.4375 C-5.9025 3.4375 -5.2425 3.4375 -4.5625 3.4375 C-4.8925 2.4475 -5.2225 1.4575 -5.5625 0.4375 C-9.1925 0.1075 -12.8225 -0.2225 -16.5625 -0.5625 C-16.5625 -0.8925 -16.5625 -1.2225 -16.5625 -1.5625 C-11.06885473 -3.15742927 -4.92512478 -3.00312487 0 0 Z " fill="#4FB1E8" transform="translate(270.5625,42.5625)"/>
<path d="M0 0 C2 1.5 2 1.5 3 3 C2.67 3.99 2.34 4.98 2 6 C1.3709375 5.98839844 0.741875 5.97679687 0.09375 5.96484375 C-5.38069088 5.90713127 -10.58457806 6.19771527 -16 7 C-15.9375 5.1875 -15.9375 5.1875 -15 3 C-9.87059834 0.06891334 -5.86646495 -0.58664649 0 0 Z " fill="#3AB6FB" transform="translate(86,12)"/>
<path d="M0 0 C0 0.66 0 1.32 0 2 C-2.64 2 -5.28 2 -8 2 C-8 2.99 -8 3.98 -8 5 C-4.04 5.33 -0.08 5.66 4 6 C4 6.66 4 7.32 4 8 C2.989375 7.938125 1.97875 7.87625 0.9375 7.8125 C-3.49780394 8.02370495 -6.15765224 8.78326091 -10 11 C-11.97806411 14.03411107 -11.97806411 14.03411107 -13 17 C-13.33 17 -13.66 17 -14 17 C-14 14.03 -14 11.06 -14 8 C-12.68 7.34 -11.36 6.68 -10 6 C-11.32 5.34 -12.64 4.68 -14 4 C-9.4024028 0.88986072 -5.51357127 0 0 0 Z " fill="#4BB1EC" transform="translate(176,40)"/>
<path d="M0 0 C1.9375 0.3125 1.9375 0.3125 4 1 C4.33 1.99 4.66 2.98 5 4 C0.71 8.29 -3.58 12.58 -8 17 C-8.33 15.68 -8.66 14.36 -9 13 C-8.01439389 11.65599167 -7.01241685 10.32392972 -6 9 C-5.27954633 5.84881675 -5.27954633 5.84881675 -5 3 C-4.360625 2.87625 -3.72125 2.7525 -3.0625 2.625 C-2.0415625 2.315625 -2.0415625 2.315625 -1 2 C-0.67 1.34 -0.34 0.68 0 0 Z " fill="#42B1EF" transform="translate(35,51)"/>
<path d="M0 0 C0.886875 0.61875 1.77375 1.2375 2.6875 1.875 C5.80072446 4.04888714 5.80072446 4.04888714 8.8125 5 C9.534375 5.33 10.25625 5.66 11 6 C11.33 7.32 11.66 8.64 12 10 C14.97 10 17.94 10 21 10 C21 9.34 21 8.68 21 8 C22.65 8 24.3 8 26 8 C21.17417561 11.6997987 18.09202099 12.18219699 12.0625 12.1875 C11.33353516 12.19974609 10.60457031 12.21199219 9.85351562 12.22460938 C6.0286609 12.23512685 4.25643436 12.17095624 1 10 C2.98 10 4.96 10 7 10 C7.33 9.01 7.66 8.02 8 7 C7.21625 7.04125 6.4325 7.0825 5.625 7.125 C3 7 3 7 1 5 C0.01 5.495 0.01 5.495 -1 6 C-0.67 4.02 -0.34 2.04 0 0 Z " fill="#4CB3ED" transform="translate(119,72)"/>
<path d="M0 0 C0.33 0 0.66 0 1 0 C1.125 2.875 1.125 2.875 1 6 C0.34 6.66 -0.32 7.32 -1 8 C-0.67 8.66 -0.34 9.32 0 10 C-0.99 10 -1.98 10 -3 10 C-3 11.32 -3 12.64 -3 14 C-5.97 13.505 -5.97 13.505 -9 13 C-9.33 13.99 -9.66 14.98 -10 16 C-10.33 15.34 -10.66 14.68 -11 14 C-11.66 13.67 -12.32 13.34 -13 13 C-9.16327369 9.06376206 -5.30953514 5.42227791 -1 2 C-0.67 1.34 -0.34 0.68 0 0 Z " fill="#34C0F8" transform="translate(29,54)"/>
<path d="M0 0 C1.32 0.33 2.64 0.66 4 1 C4.33 2.32 4.66 3.64 5 5 C5.94875 4.79375 6.8975 4.5875 7.875 4.375 C9.421875 4.189375 9.421875 4.189375 11 4 C13 6 13 6 13.125 9.125 C13.08375 10.07375 13.0425 11.0225 13 12 C12.01 12 11.02 12 10 12 C9.484375 11.401875 8.96875 10.80375 8.4375 10.1875 C4.82466244 6.94520988 0.63776082 6.16829089 -4 5 C-3.67 4.34 -3.34 3.68 -3 3 C-2.34 3 -1.68 3 -1 3 C-0.67 2.01 -0.34 1.02 0 0 Z " fill="#36B7FD" transform="translate(130,23)"/>
<path d="M0 0 C2.02694516 1.67654241 2.91889146 2.56248182 3.40625 5.19140625 C3.4688528 6.77473552 3.53135247 8.35806888 3.59375 9.94140625 C3.7278125 10.62074219 3.861875 11.30007812 4 12 C4.99 12.66 5.98 13.32 7 14 C6.01 14.99 5.02 15.98 4 17 C3.01 16.67 2.02 16.34 1 16 C1 14.68 1 13.36 1 12 C-0.32 12 -1.64 12 -3 12 C-3.2954439 6.97745369 -2.98514628 4.10457614 0 0 Z " fill="#37B5FC" transform="translate(303,64)"/>
<path d="M0 0 C4.44355888 0.02987266 7.96999406 0.17957355 12.01171875 2.265625 C11.68171875 3.255625 11.35171875 4.245625 11.01171875 5.265625 C11.67171875 5.265625 12.33171875 5.265625 13.01171875 5.265625 C12.68171875 5.925625 12.35171875 6.585625 12.01171875 7.265625 C10.09418922 7.20532533 8.17754449 7.11645793 6.26171875 7.015625 C5.194375 6.96921875 4.12703125 6.9228125 3.02734375 6.875 C-0.51233633 6.15972786 -1.72710087 5.00977595 -3.98828125 2.265625 C-1.98828125 0.265625 -1.98828125 0.265625 0 0 Z " fill="#38B7FB" transform="translate(254.98828125,76.734375)"/>
<path d="M0 0 C2.1875 -0.3125 2.1875 -0.3125 5 0 C7.875 2.1875 7.875 2.1875 10 5 C9.91985673 8.44616056 9.4443896 9.5556104 7 12 C6.896875 11.360625 6.79375 10.72125 6.6875 10.0625 C6.460625 9.381875 6.23375 8.70125 6 8 C5.01 7.67 4.02 7.34 3 7 C1.65909241 6.34870203 0.32407669 5.68486725 -1 5 C-0.67 3.35 -0.34 1.7 0 0 Z " fill="#3DB5F8" transform="translate(16,88)"/>
<path d="M0 0 C3.26854674 2.89712097 6.04182502 6.01866917 8.75 9.4375 C7.43 9.1075 6.11 8.7775 4.75 8.4375 C4.75 7.7775 4.75 7.1175 4.75 6.4375 C3.1 6.4375 1.45 6.4375 -0.25 6.4375 C-0.58 7.4275 -0.91 8.4175 -1.25 9.4375 C-2.57 8.1175 -3.89 6.7975 -5.25 5.4375 C-4.26 5.4375 -3.27 5.4375 -2.25 5.4375 C-2.74756092 2.68108584 -2.74756092 2.68108584 -4.25 0.4375 C-6.12321948 0.27696185 -6.12321948 0.27696185 -8.25 0.3125 C-8.971875 0.30992188 -9.69375 0.30734375 -10.4375 0.3046875 C-12.27089415 0.24054724 -12.27089415 0.24054724 -13.25 1.4375 C-14.91617115 1.47813832 -16.58388095 1.480221 -18.25 1.4375 C-13.57562001 -3.23687999 -5.61102225 -2.69760685 0 0 Z " fill="#4CB0E8" transform="translate(90.25,12.5625)"/>
<path d="M0 0 C0.33 0 0.66 0 1 0 C1.04125 1.2375 1.0825 2.475 1.125 3.75 C1.57178617 7.4688378 1.78276429 7.82054441 4.875 10.375 C5.90625 10.91125 6.9375 11.4475 8 12 C8.99 12.66 9.98 13.32 11 14 C6.43545749 13.45660208 3.0271824 12.20536179 -1 10 C-1 10.66 -1 11.32 -1 12 C-1.66 12 -2.32 12 -3 12 C-1.27773504 15.24849977 -1.27773504 15.24849977 2 16 C2 16.66 2 17.32 2 18 C-2.4030087 16.65463623 -4.471564 14.83947688 -7 11 C-7 10.01 -7 9.02 -7 8 C-5.34385343 7.61781233 -3.67542976 7.28604898 -2 7 C-1.67 7.33 -1.34 7.66 -1 8 C-0.67 5.36 -0.34 2.72 0 0 Z " fill="#4EB2EB" transform="translate(119,35)"/>
<path d="M0 0 C1.65 0.33 3.3 0.66 5 1 C5.3125 3.25 5.3125 3.25 5 6 C2.6875 8.3125 2.6875 8.3125 0 10 C-1.66666667 10 -3.33333333 10 -5 10 C-5.33 9.01 -5.66 8.02 -6 7 C-4.78515625 5.17578125 -4.78515625 5.17578125 -3.0625 3.3125 C-2.49660156 2.68988281 -1.93070312 2.06726562 -1.34765625 1.42578125 C-0.90292969 0.95527344 -0.45820312 0.48476563 0 0 Z " fill="#36BAFB" transform="translate(81,59)"/>
<path d="M0 0 C0.625 1.8125 0.625 1.8125 1 4 C0.01 5.485 0.01 5.485 -1 7 C0.98 6.67 2.96 6.34 5 6 C5 4.35 5 2.7 5 1 C5.66 1.33 6.32 1.66 7 2 C6.65986985 7.44208234 3.29703472 10.93668198 0 15 C-0.33 13.68 -0.66 12.36 -1 11 C-0.34 11 0.32 11 1 11 C0.34 10.34 -0.32 9.68 -1 9 C-3.88437779 10.29299694 -5.87219421 11.65941363 -8 14 C-8.66 13.67 -9.32 13.34 -10 13 C-9.52949219 12.56429687 -9.05898437 12.12859375 -8.57421875 11.6796875 C-4.7848786 8.05510127 -2.04329447 4.92794549 0 0 Z " fill="#4CAFEA" transform="translate(98,38)"/>
<path d="M0 0 C3.10613463 2.90573885 4.8261078 4.76770946 5.16796875 9.15625 C5.17441406 9.9296875 5.18085938 10.703125 5.1875 11.5 C5.20167969 12.2734375 5.21585938 13.046875 5.23046875 13.84375 C5 16 5 16 3 19 C2.95101562 18.00097656 2.90203125 17.00195312 2.8515625 15.97265625 C2.77679688 14.68230469 2.70203125 13.39195313 2.625 12.0625 C2.55539063 10.77472656 2.48578125 9.48695312 2.4140625 8.16015625 C2.27742187 7.11730469 2.14078125 6.07445312 2 5 C1.34 4.67 0.68 4.34 0 4 C-0.33 4.99 -0.66 5.98 -1 7 C-1 6.34 -1 5.68 -1 5 C-1.66 5 -2.32 5 -3 5 C-3 5.66 -3 6.32 -3 7 C-5.95409701 5.62845496 -8.44008376 4.01136276 -11 2 C-9.54176788 1.9729957 -8.08339325 1.95360213 -6.625 1.9375 C-5.81289062 1.92589844 -5.00078125 1.91429687 -4.1640625 1.90234375 C-2 2 -2 2 0 3 C0 2.01 0 1.02 0 0 Z " fill="#4EB1ED" transform="translate(146,56)"/>
<path d="M0 0 C1.66611905 -0.042721 3.33382885 -0.04063832 5 0 C6 1 6 1 6.0625 4.0625 C6.041875 5.031875 6.02125 6.00125 6 7 C2.37 7 -1.26 7 -5 7 C-5 5.68 -5 4.36 -5 3 C-3.68 3 -2.36 3 -1 3 C-0.67 2.01 -0.34 1.02 0 0 Z " fill="#3FB4F6" transform="translate(358,42)"/>
<path d="M0 0 C0.99 0.33 1.98 0.66 3 1 C2.34 2.65 1.68 4.3 1 6 C-0.98 6 -2.96 6 -5 6 C-5.33 6.99 -5.66 7.98 -6 9 C-6.99 9 -7.98 9 -9 9 C-9.33 7.02 -9.66 5.04 -10 3 C-9.04287109 2.80083984 -9.04287109 2.80083984 -8.06640625 2.59765625 C-7.24011719 2.42105469 -6.41382812 2.24445313 -5.5625 2.0625 C-4.73878906 1.88847656 -3.91507812 1.71445313 -3.06640625 1.53515625 C-1.02338796 1.19247006 -1.02338796 1.19247006 0 0 Z " fill="#36BAFC" transform="translate(71,68)"/>
<path d="M0 0 C2.31 0 4.62 0 7 0 C8 3 8 3 7.1796875 4.97265625 C3.62488324 10.66672894 3.62488324 10.66672894 0.1875 12.5 C-0.534375 12.665 -1.25625 12.83 -2 13 C-1.0022242 10.00667261 -0.2477975 9.05233685 2 7 C1.67 6.34 1.34 5.68 1 5 C1.33 4.01 1.66 3.02 2 2 C1.01 2.33 0.02 2.66 -1 3 C-0.67 2.01 -0.34 1.02 0 0 Z " fill="#48B3EB" transform="translate(186,69)"/>
<path d="M0 0 C0.99 0.33 1.98 0.66 3 1 C2.65066406 1.47050781 2.30132812 1.94101562 1.94140625 2.42578125 C1.48636719 3.04839844 1.03132812 3.67101563 0.5625 4.3125 C0.11003906 4.92738281 -0.34242188 5.54226562 -0.80859375 6.17578125 C-3.06194107 9.62598845 -3.17381593 12.74881983 -3.31640625 16.76171875 C-3.35830078 17.87998047 -3.40019531 18.99824219 -3.44335938 20.15039062 C-3.48267578 21.31763672 -3.52199219 22.48488281 -3.5625 23.6875 C-3.62727539 25.45577148 -3.62727539 25.45577148 -3.69335938 27.25976562 C-3.79951176 30.17305883 -3.90156242 33.08643757 -4 36 C-6.31 36 -8.62 36 -11 36 C-11 35.67 -11 35.34 -11 35 C-9.02 35 -7.04 35 -5 35 C-5.01047363 34.24380371 -5.02094727 33.48760742 -5.03173828 32.70849609 C-5.07345416 29.26403155 -5.09937583 25.8196203 -5.125 22.375 C-5.14175781 21.18519531 -5.15851563 19.99539062 -5.17578125 18.76953125 C-5.18222656 17.61582031 -5.18867188 16.46210937 -5.1953125 15.2734375 C-5.20578613 14.21560059 -5.21625977 13.15776367 -5.22705078 12.06787109 C-4.98270857 8.76636112 -4.16882977 6.08587237 -3 3 C-2.01 3 -1.02 3 0 3 C0 2.01 0 1.02 0 0 Z " fill="#4BB0ED" transform="translate(210,47)"/>
<path d="M0 0 C4.29 0 8.58 0 13 0 C13 1.32 13 2.64 13 4 C10.2955743 5.76827834 9.15720512 6.01886461 5.875 5.625 C4.92625 5.41875 3.9775 5.2125 3 5 C2.34 5 1.68 5 1 5 C0.67 3.35 0.34 1.7 0 0 Z " fill="#39B6FD" transform="translate(253,42)"/>
<path d="M0 0 C0 1.32 0 2.64 0 4 C-4.92127034 4.16682272 -8.50343896 4.24828052 -13 2 C-13 1.34 -13 0.68 -13 0 C-11.58800422 -0.39222105 -10.17007236 -0.76311059 -8.75 -1.125 C-7.96109375 -1.33382812 -7.1721875 -1.54265625 -6.359375 -1.7578125 C-3.5796929 -2.04314411 -2.34112451 -1.44977894 0 0 Z " fill="#39B7FA" transform="translate(146,55)"/>
<path d="M0 0 C0.66 0.33 1.32 0.66 2 1 C1.525625 1.598125 1.05125 2.19625 0.5625 2.8125 C-1.16465744 5.00382924 -1.16465744 5.00382924 -2 8 C-1.34 8.33 -0.68 8.66 0 9 C0.125 11.875 0.125 11.875 0 15 C-0.66 15.66 -1.32 16.32 -2 17 C-2 16.01 -2 15.02 -2 14 C-3.32 14 -4.64 14 -6 14 C-5.62257767 7.83543524 -3.84129692 4.82624485 0 0 Z " fill="#47B2F1" transform="translate(160,45)"/>
<path d="M0 0 C0.33 1.65 0.66 3.3 1 5 C2.98 4.67 4.96 4.34 7 4 C6 6 6 6 3.1875 7.375 C0.11833763 8.93967101 -1.72195431 10.45910288 -4 13 C-4 12.01 -4 11.02 -4 10 C-4.66 9.34 -5.32 8.68 -6 8 C-4.68 6.68 -3.36 5.36 -2 4 C-3.32 3.67 -4.64 3.34 -6 3 C-2.25 0 -2.25 0 0 0 Z " fill="#48B1EE" transform="translate(253,42)"/>
<path d="M0 0 C3.63 0.33 7.26 0.66 11 1 C10.34 2.65 9.68 4.3 9 6 C2.25 6.125 2.25 6.125 0 5 C0 3.35 0 1.7 0 0 Z " fill="#38B6FD" transform="translate(166,77)"/>
<path d="M0 0 C0.33 0 0.66 0 1 0 C1.03738281 0.73605469 1.07476562 1.47210938 1.11328125 2.23046875 C1.47977982 9.64834615 1.47977982 9.64834615 5 16 C6.94009522 17.70532323 6.94009522 17.70532323 9 19 C9.99 19.66 10.98 20.32 12 21 C9.69 20.67 7.38 20.34 5 20 C5 21.65 5 23.3 5 25 C5.66 25.33 6.32 25.66 7 26 C4.5625 25.625 4.5625 25.625 2 25 C1.67 24.34 1.34 23.68 1 23 C1.66 23 2.32 23 3 23 C3.31565758 18.59806418 3.31565758 18.59806418 1.5 14.6875 C-0.31547424 11.43477532 -0.30926028 9.3808951 -0.1875 5.6875 C-0.16042969 4.61886719 -0.13335937 3.55023438 -0.10546875 2.44921875 C-0.07066406 1.64097656 -0.03585938 0.83273438 0 0 Z " fill="#52B0EB" transform="translate(161,57)"/>
<path d="M0 0 C3.3 0 6.6 0 10 0 C10.33 1.65 10.66 3.3 11 5 C7.98146205 5 5.22918921 4.85049285 2.25 4.5 C1.45078125 4.4071875 0.6515625 4.314375 -0.171875 4.21875 C-0.77515625 4.1465625 -1.3784375 4.074375 -2 4 C-1.34 2.68 -0.68 1.36 0 0 Z " fill="#3BB5FC" transform="translate(413,42)"/>
<path d="M0 0 C1.65 1.32 3.3 2.64 5 4 C4.67 5.65 4.34 7.3 4 9 C1.625 9.125 1.625 9.125 -1 9 C-1.66 8.34 -2.32 7.68 -3 7 C-2.625 4.375 -2.625 4.375 -2 2 C-1.34 2 -0.68 2 0 2 C0 1.34 0 0.68 0 0 Z " fill="#48B1ED" transform="translate(68,51)"/>
<path d="M0 0 C5.87540641 0.28660519 9.15445352 2.7993239 13 7 C14.8810644 10.43498717 15 11.99422503 15 16 C14.34 16 13.68 16 13 16 C12.67 13.69 12.34 11.38 12 9 C11.01 9 10.02 9 9 9 C8.34 7.35 7.68 5.7 7 4 C5.02 4 3.04 4 1 4 C0.67 2.68 0.34 1.36 0 0 Z " fill="#51AEE3" transform="translate(134,24)"/>
<path d="M0 0 C4.56454251 0.54339792 7.9728176 1.79463821 12 4 C12 4.33 12 4.66 12 5 C7.545 5.495 7.545 5.495 3 6 C3.33 6.99 3.66 7.98 4 9 C1.36 8.34 -1.28 7.68 -4 7 C-4 6.67 -4 6.34 -4 6 C-2.02 5.34 -0.04 4.68 2 4 C2 3.01 2 2.02 2 1 C1.34 0.67 0.68 0.34 0 0 Z " fill="#4BB1EB" transform="translate(130,49)"/>
<path d="M0 0 C0.33 0 0.66 0 1 0 C1 7.26 1 14.52 1 22 C0.34 22 -0.32 22 -1 22 C-1 21.34 -1 20.68 -1 20 C-1.66 20 -2.32 20 -3 20 C-2.01 13.4 -1.02 6.8 0 0 Z " fill="#41B5F9" transform="translate(404,61)"/>
<path d="M0 0 C1.134375 0.020625 2.26875 0.04125 3.4375 0.0625 C3.4375 0.7225 3.4375 1.3825 3.4375 2.0625 C1.4575 2.0625 -0.5225 2.0625 -2.5625 2.0625 C-2.5625 7.3425 -2.5625 12.6225 -2.5625 18.0625 C-3.2225 18.0625 -3.8825 18.0625 -4.5625 18.0625 C-4.58934312 15.24993719 -4.60926188 12.43762759 -4.625 9.625 C-4.63337891 8.82255859 -4.64175781 8.02011719 -4.65039062 7.19335938 C-4.6590143 5.14954779 -4.6147815 3.10566098 -4.5625 1.0625 C-3.5625 0.0625 -3.5625 0.0625 0 0 Z " fill="#4BB0E2" transform="translate(371.5625,22.9375)"/>
<path d="M0 0 C1.32 0.66 2.64 1.32 4 2 C3.54625 2.433125 3.0925 2.86625 2.625 3.3125 C0.79975666 5.10798342 0.79975666 5.10798342 -1 8 C-2.9453125 8.29296875 -2.9453125 8.29296875 -5.125 8.1875 C-7.043125 8.0946875 -7.043125 8.0946875 -9 8 C-8.625 5.0625 -8.625 5.0625 -8 2 C-7.34 1.67 -6.68 1.34 -6 1 C-6 1.99 -6 2.98 -6 4 C-5.01 4 -4.02 4 -3 4 C-3 4.66 -3 5.32 -3 6 C-2.34 6 -1.68 6 -1 6 C-0.67 4.02 -0.34 2.04 0 0 Z " fill="#4CB1ED" transform="translate(309,47)"/>
<path d="M0 0 C-0.99 1.32 -1.98 2.64 -3 4 C-1.35 4.33 0.3 4.66 2 5 C0 7 0 7 -3.2578125 7.1953125 C-4.53398437 7.17210938 -5.81015625 7.14890625 -7.125 7.125 C-9.04699219 7.09792969 -9.04699219 7.09792969 -11.0078125 7.0703125 C-12.48894531 7.03550781 -12.48894531 7.03550781 -14 7 C-14 6.67 -14 6.34 -14 6 C-10.535 5.505 -10.535 5.505 -7 5 C-6.67 3.35 -6.34 1.7 -6 0 C-2.25 -1.125 -2.25 -1.125 0 0 Z " fill="#4EB3EB" transform="translate(182,77)"/>
<path d="M0 0 C3.0916909 2.52956528 3.90931332 5.22454612 5 9 C1.94975355 9.2877591 -0.96117274 9.44879477 -4 9 C-5.9375 6.625 -5.9375 6.625 -7 4 C-7.66 3.34 -8.32 2.68 -9 2 C-7.02 2 -5.04 2 -3 2 C-2.67 3.65 -2.34 5.3 -2 7 C-1.01 7 -0.02 7 1 7 C0.67 4.69 0.34 2.38 0 0 Z " fill="#53AEE7" transform="translate(189,46)"/>
<path d="M0 0 C2.31 0 4.62 0 7 0 C7.33 7.26 7.66 14.52 8 22 C8.99 22 9.98 22 11 22 C9.625 24 9.625 24 8 26 C7.34 26 6.68 26 6 26 C6 17.75 6 9.5 6 1 C4.02 1.33 2.04 1.66 0 2 C0 1.34 0 0.68 0 0 Z " fill="#52B5EC" transform="translate(199,23)"/>
<path d="M0 0 C0.99 0.33 1.98 0.66 3 1 C2.62875 2.0725 2.2575 3.145 1.875 4.25 C0.94440508 8.23826396 1.04118058 8.72079119 3 12 C-1.13621084 8.6189962 -4.81316569 5.33409466 -8 1 C-5.525 1.495 -5.525 1.495 -3 2 C-3 2.99 -3 3.98 -3 5 C-2.34 5 -1.68 5 -1 5 C-0.67 3.35 -0.34 1.7 0 0 Z " fill="#4CB2ED" transform="translate(53,62)"/>
<path d="M0 0 C1.67542976 0.28604898 3.34385343 0.61781233 5 1 C5 1.66 5 2.32 5 3 C5.99 3.33 6.98 3.66 8 4 C8 5.32 8 6.64 8 8 C7.01 8 6.02 8 5 8 C5 7.34 5 6.68 5 6 C3.35 5.67 1.7 5.34 0 5 C-0.5625 3.0625 -0.5625 3.0625 -1 1 C-0.67 0.67 -0.34 0.34 0 0 Z " fill="#38B6FB" transform="translate(90,18)"/>
<path d="M0 0 C1.32 0 2.64 0 4 0 C4 0.99 4 1.98 4 3 C4.66 3 5.32 3 6 3 C6.33 4.65 6.66 6.3 7 8 C4.69 7.67 2.38 7.34 0 7 C0 4.69 0 2.38 0 0 Z " fill="#3EB7FA" transform="translate(343,42)"/>
<path d="M0 0 C-1.32 0.33 -2.64 0.66 -4 1 C-4 1.66 -4 2.32 -4 3 C-7.3509205 5.233947 -9.18819956 5.36274239 -13.0625 5.65625 C-15.31880605 5.9230571 -15.31880605 5.9230571 -18 8 C-16.93161852 4.90169371 -16.05608991 4.03365395 -13.1875 2.3125 C-8.6602237 0.4483274 -4.87905952 -0.1394017 0 0 Z " fill="#4DB1E9" transform="translate(321,40)"/>
<path d="M0 0 C-0.33 1.65 -0.66 3.3 -1 5 C-7.625 5.125 -7.625 5.125 -11 4 C-11 3.01 -11 2.02 -11 1 C-3.375 0 -3.375 0 0 0 Z " fill="#38B6FD" transform="translate(179,41)"/>
<path d="M0 0 C1.47193312 2.94386623 0.84936173 5.37390036 0.5625 8.625 C0.40974609 10.40777344 0.40974609 10.40777344 0.25390625 12.2265625 C0.12822266 13.59941406 0.12822266 13.59941406 0 15 C0.66 15.33 1.32 15.66 2 16 C2 17.65 2 19.3 2 21 C-1.1322915 18.43721605 -2.11365023 15.91471148 -3 12 C-2.93365709 7.69600374 -2.31347923 3.70156677 0 0 Z " fill="#50B2EC" transform="translate(13,72)"/>
<path d="M0 0 C0.33 1.98 0.66 3.96 1 6 C-0.65 7.32 -2.3 8.64 -4 10 C-4.6875 6.6875 -4.6875 6.6875 -5 3 C-3.42599605 0.67647035 -2.82844233 0 0 0 Z " fill="#39B6FA" transform="translate(54,89)"/>
<path d="M0 0 C0.36923077 5.53846154 0.36923077 5.53846154 -1.5 7.875 C-2.2425 8.431875 -2.2425 8.431875 -3 9 C-4 8 -4 8 -4.0625 5.4375 C-4.041875 4.633125 -4.02125 3.82875 -4 3 C-5.32 2.67 -6.64 2.34 -8 2 C-7.34 2 -6.68 2 -6 2 C-6 1.34 -6 0.68 -6 0 C-3 -1 -3 -1 0 0 Z " fill="#35B8FC" transform="translate(149,61)"/>
<path d="M0 0 C1.32 0 2.64 0 4 0 C4 0.99 4 1.98 4 3 C3.34 3 2.68 3 2 3 C2 4.65 2 6.3 2 8 C-1 8 -1 8 -2.6875 6.5 C-3.120625 6.005 -3.55375 5.51 -4 5 C-2.25 2.5 -2.25 2.5 0 0 Z " fill="#35BAFC" transform="translate(95,46)"/>
<path d="M0 0 C0.99 0.33 1.98 0.66 3 1 C3 1.66 3 2.32 3 3 C3.99 3 4.98 3 6 3 C5.6875 4.9375 5.6875 4.9375 5 7 C4.01 7.33 3.02 7.66 2 8 C0.4375 6.8125 0.4375 6.8125 -1 5 C-0.6875 2.3125 -0.6875 2.3125 0 0 Z " fill="#38B6FC" transform="translate(460,69)"/>
<path d="M0 0 C0 2.31 0 4.62 0 7 C-0.33 7 -0.66 7 -1 7 C-1.33 5.35 -1.66 3.7 -2 2 C-3.65 1.67 -5.3 1.34 -7 1 C-7.33 2.32 -7.66 3.64 -8 5 C-10.31 5.33 -12.62 5.66 -15 6 C-10.8571467 1.22944166 -6.44982352 -2.14994117 0 0 Z " fill="#51B1E8" transform="translate(365,41)"/>
<path d="M0 0 C0.99 0.66 1.98 1.32 3 2 C5.62531524 2.16713569 5.62531524 2.16713569 8 2 C7.34 3.32 6.68 4.64 6 6 C4.02 6 2.04 6 0 6 C-0.66 4.68 -1.32 3.36 -2 2 C-1.34 1.34 -0.68 0.68 0 0 Z " fill="#38B6FB" transform="translate(120,76)"/>
<path d="M0 0 C0.99 0.66 1.98 1.32 3 2 C3 2.66 3 3.32 3 4 C3.66 4.33 4.32 4.66 5 5 C5 5.66 5 6.32 5 7 C4.34 7 3.68 7 3 7 C3 7.99 3 8.98 3 10 C1 10 1 10 -0.75 8.375 C-2 6 -2 6 -1.1875 2.75 C-0.795625 1.8425 -0.40375 0.935 0 0 Z " fill="#37B7FC" transform="translate(55,64)"/>
<path d="M0 0 C1.32 0 2.64 0 4 0 C4 0.99 4 1.98 4 3 C4.928125 3.2165625 4.928125 3.2165625 5.875 3.4375 C8 4 8 4 10 5 C12.0374763 5.22858114 14.08040303 5.41024278 16.125 5.5625 C17.76855469 5.68818359 17.76855469 5.68818359 19.4453125 5.81640625 C20.28835938 5.87699219 21.13140625 5.93757813 22 6 C22 6.33 22 6.66 22 7 C7.84119007 7.56719268 7.84119007 7.56719268 3 4 C1.125 1.8125 1.125 1.8125 0 0 Z " fill="#53AEE0" transform="translate(245,77)"/>
<path d="M0 0 C1.32 0.66 2.64 1.32 4 2 C3.67 3.98 3.34 5.96 3 8 C2.01 8 1.02 8 0 8 C0 7.01 0 6.02 0 5 C-0.66 5 -1.32 5 -2 5 C-1.125 1.125 -1.125 1.125 0 0 Z " fill="#38B6FC" transform="translate(115,70)"/>
<path d="M0 0 C6.625 -0.125 6.625 -0.125 10 1 C10 1.66 10 2.32 10 3 C7.69 3.66 5.38 4.32 3 5 C3 4.34 3 3.68 3 3 C2.01 2.67 1.02 2.34 0 2 C0 1.34 0 0.68 0 0 Z " fill="#37B6FD" transform="translate(35,100)"/>
<path d="M0 0 C0.99 0 1.98 0 3 0 C1.27497094 10.41826759 1.27497094 10.41826759 -3 14 C-6.75 14.3125 -6.75 14.3125 -10 14 C-10 13.67 -10 13.34 -10 13 C-8.906875 12.773125 -7.81375 12.54625 -6.6875 12.3125 C-2.95945332 11.32838921 -2.95945332 11.32838921 -1.0625 8.75 C0.13669936 5.64618989 0.23023089 3.2999761 0 0 Z " fill="#52B2ED" transform="translate(142,64)"/>
<path d="M0 0 C0.66 0.66 1.32 1.32 2 2 C1.9765625 4.8203125 1.9765625 4.8203125 1.625 8.125 C1.51414062 9.22070312 1.40328125 10.31640625 1.2890625 11.4453125 C1.14597656 12.70988281 1.14597656 12.70988281 1 14 C0.67 14 0.34 14 0 14 C0 11.69 0 9.38 0 7 C-0.99 7 -1.98 7 -3 7 C-2.67 5.68 -2.34 4.36 -2 3 C-1.34 3 -0.68 3 0 3 C0 2.01 0 1.02 0 0 Z " fill="#2BCBFE" transform="translate(448,56)"/>
<path d="M0 0 C-0.33 1.98 -0.66 3.96 -1 6 C-1.99 6 -2.98 6 -4 6 C-4.33 6.66 -4.66 7.32 -5 8 C-5.66 7.34 -6.32 6.68 -7 6 C-5.52522876 2.59668175 -4.14385429 0 0 0 Z " fill="#34B6FD" transform="translate(278,69)"/>
<path d="M0 0 C2 3 2 3 2 5 C0.35 4.67 -1.3 4.34 -3 4 C-1 1 -1 1 0 0 Z M-7 4 C-4.525 4.495 -4.525 4.495 -2 5 C-2.33 6.65 -2.66 8.3 -3 10 C-5.2477975 7.94766315 -6.0022242 6.99332739 -7 4 Z " fill="#4AB0E7" transform="translate(248,67)"/>
<path d="M0 0 C2.4375 0.25 2.4375 0.25 5 1 C5.66 1.99 6.32 2.98 7 4 C4.69 4 2.38 4 0 4 C-0.33 4.66 -0.66 5.32 -1 6 C-1.042721 4.33388095 -1.04063832 2.66617115 -1 1 C-0.67 0.67 -0.34 0.34 0 0 Z " fill="#4EB1ED" transform="translate(45,57)"/>
<path d="M0 0 C1.65 0 3.3 0 5 0 C2.03 3.96 2.03 3.96 -1 8 C-1.66 6.68 -2.32 5.36 -3 4 C-2.34 4 -1.68 4 -1 4 C-0.67 2.68 -0.34 1.36 0 0 Z " fill="#48AEEA" transform="translate(21,68)"/>
<path d="M0 0 C1.65 0 3.3 0 5 0 C5.33 0.99 5.66 1.98 6 3 C4.5625 5.1875 4.5625 5.1875 3 7 C3 6.01 3 5.02 3 4 C2.01 4 1.02 4 0 4 C0 2.68 0 1.36 0 0 Z " fill="#36B8FC" transform="translate(268,44)"/>
<path d="M0 0 C2.31 0 4.62 0 7 0 C6.67 1.32 6.34 2.64 6 4 C4.35 3.67 2.7 3.34 1 3 C0.67 2.01 0.34 1.02 0 0 Z " fill="#3FB7F6" transform="translate(465,42)"/>
<path d="M0 0 C1.65 0 3.3 0 5 0 C5 0.66 5 1.32 5 2 C5.66 2.33 6.32 2.66 7 3 C7.72693904 4.97888961 8.39816251 6.97954558 9 9 C7.87105124 8.06725891 6.74699124 7.12859878 5.625 6.1875 C4.99851562 5.66542969 4.37203125 5.14335938 3.7265625 4.60546875 C2 3 2 3 0 0 Z " fill="#52AEE6" transform="translate(15,93)"/>
<path d="M0 0 C2.3125 -0.25 2.3125 -0.25 5 0 C6.8125 2 6.8125 2 8 4 C5.83125748 3.49396008 4.00032373 3.00016187 2 2 C2 2.66 2 3.32 2 4 C1.01 4 0.02 4 -1 4 C-0.67 2.68 -0.34 1.36 0 0 Z " fill="#30C2FA" transform="translate(16,88)"/>
<path d="M0 0 C0.99 0 1.98 0 3 0 C3.33 1.65 3.66 3.3 4 5 C2.02 5.33 0.04 5.66 -2 6 C-1.34 4.02 -0.68 2.04 0 0 Z " fill="#3AB6FC" transform="translate(99,39)"/>
<path d="M0 0 C1.9375 0.3125 1.9375 0.3125 4 1 C4.33 1.99 4.66 2.98 5 4 C2.625 4.625 2.625 4.625 0 5 C-0.66 4.34 -1.32 3.68 -2 3 C-1.34 2.01 -0.68 1.02 0 0 Z " fill="#3DB3F9" transform="translate(35,51)"/>
<path d="M0 0 C0 0.99 0 1.98 0 3 C-1 4 -1 4 -3.72265625 4.09765625 C-5.37587891 4.08025391 -5.37587891 4.08025391 -7.0625 4.0625 C-8.16722656 4.05347656 -9.27195313 4.04445313 -10.41015625 4.03515625 C-11.69212891 4.01775391 -11.69212891 4.01775391 -13 4 C-12.67 3.34 -12.34 2.68 -12 2 C-10.14375 2.061875 -10.14375 2.061875 -8.25 2.125 C-4.98362038 2.13658291 -2.7853053 1.8568702 0 0 Z " fill="#4EB2EC" transform="translate(43,96)"/>
<path d="M0 0 C1.98 0 3.96 0 6 0 C6 0.99 6 1.98 6 3 C4.35 3 2.7 3 1 3 C0.67 3.99 0.34 4.98 0 6 C-1.125 2.25 -1.125 2.25 0 0 Z " fill="#3EB7F5" transform="translate(110,66)"/>
<path d="M0 0 C0.33 0 0.66 0 1 0 C1 1.98 1 3.96 1 6 C-0.98 6.99 -0.98 6.99 -3 8 C-3.33 7.01 -3.66 6.02 -4 5 C-2.125 2.3125 -2.125 2.3125 0 0 Z " fill="#39B9FB" transform="translate(29,54)"/>
<path d="M0 0 C3.95820859 0.56545837 6.6659053 1.80902348 10 4 C7.5502519 4.87491004 6.36551707 5.12900603 3.875 4.25 C2 3 2 3 0 0 Z " fill="#4DAFE7" transform="translate(179,41)"/>
<path d="M0 0 C1.32 0 2.64 0 4 0 C4 0.66 4 1.32 4 2 C4.99 2.33 5.98 2.66 7 3 C4.36 3.33 1.72 3.66 -1 4 C-0.67 2.68 -0.34 1.36 0 0 Z " fill="#37B5FA" transform="translate(26,98)"/>
<path d="M0 0 C1.98 0 3.96 0 6 0 C6.33 1.98 6.66 3.96 7 6 C6.01 6.495 6.01 6.495 5 7 C4.54625 6.21625 4.0925 5.4325 3.625 4.625 C2.11571258 1.96301969 2.11571258 1.96301969 0 0 Z " fill="#4BB3EC" transform="translate(180,48)"/>
<path d="M0 0 C-0.33 1.65 -0.66 3.3 -1 5 C-2.65 3.35 -4.3 1.7 -6 0 C-2.25 -1.125 -2.25 -1.125 0 0 Z " fill="#2FC9F9" transform="translate(62,49)"/>
<path d="M0 0 C0.99 0 1.98 0 3 0 C3.33 2.97 3.66 5.94 4 9 C0.68987756 5.68987756 0.49648935 4.46840411 0 0 Z " fill="#53B1EA" transform="translate(154,67)"/>
<path d="M0 0 C1.65 0 3.3 0 5 0 C5 0.99 5 1.98 5 3 C3.35 3.66 1.7 4.32 0 5 C0 3.35 0 1.7 0 0 Z " fill="#36B6FC" transform="translate(358,42)"/>
<path d="M0 0 C1.32 0 2.64 0 4 0 C4.33 0.99 4.66 1.98 5 3 C4.67 3.66 4.34 4.32 4 5 C2.0625 4.6875 2.0625 4.6875 0 4 C-0.33 3.01 -0.66 2.02 -1 1 C-0.67 0.67 -0.34 0.34 0 0 Z " fill="#33BDFC" transform="translate(57,26)"/>
<path d="M0 0 C2.9375 0.375 2.9375 0.375 6 1 C6.33 1.66 6.66 2.32 7 3 C5.02 3.33 3.04 3.66 1 4 C0.67 2.68 0.34 1.36 0 0 Z " fill="#48AFEB" transform="translate(134,24)"/>
<path d="M0 0 C0 2.31 0 4.62 0 7 C-0.33 7 -0.66 7 -1 7 C-1.33 5.35 -1.66 3.7 -2 2 C-4.97 1.505 -4.97 1.505 -8 1 C-8 0.67 -8 0.34 -8 0 C-4.71303767 -0.79953138 -3.28976808 -1.09658936 0 0 Z " fill="#60ABD4" transform="translate(365,41)"/>
<path d="" fill="#FFFFFF" transform="translate(0,0)"/>
<path d="" fill="#FFFFFF" transform="translate(0,0)"/>
<path d="" fill="#FFFFFF" transform="translate(0,0)"/>
<path d="" fill="#FFFFFF" transform="translate(0,0)"/>
<path d="" fill="#FFFFFF" transform="translate(0,0)"/>
<path d="" fill="#FFFFFF" transform="translate(0,0)"/>
<path d="" fill="#FFFFFF" transform="translate(0,0)"/>
<path d="" fill="#FFFFFF" transform="translate(0,0)"/>
<path d="" fill="#FFFFFF" transform="translate(0,0)"/>
<path d="" fill="#FFFFFF" transform="translate(0,0)"/>
<path d="" fill="#FFFFFF" transform="translate(0,0)"/>
<path d="" fill="#FFFFFF" transform="translate(0,0)"/>
<path d="" fill="#FFFFFF" transform="translate(0,0)"/>
<path d="" fill="#FFFFFF" transform="translate(0,0)"/>
<path d="" fill="#FFFFFF" transform="translate(0,0)"/>
<path d="" fill="#FFFFFF" transform="translate(0,0)"/>
</svg>
